<svg width="14" height="15" viewBox="0 0 14 15" fill="none" xmlns="http://www.w3.org/2000/svg">
<path d="M1 11.4785L1 13.4785C1 14.0308 1.44772 14.4785 2 14.4785L12 14.4785C12.5523 14.4785 13 14.0308 13 13.4785L13 11.4785" stroke="#012A72" stroke-linecap="round"/>
<path d="M7.5 0.521484C7.5 0.245342 7.27614 0.0214844 7 0.0214844C6.72386 0.0214844 6.5 0.245342 6.5 0.521484L7.5 0.521484ZM6.64645 11.4321C6.84171 11.6274 7.15829 11.6274 7.35355 11.4321L10.5355 8.25013C10.7308 8.05486 10.7308 7.73828 10.5355 7.54302C10.3403 7.34776 10.0237 7.34776 9.82843 7.54302L7 10.3714L4.17157 7.54302C3.97631 7.34776 3.65973 7.34776 3.46447 7.54302C3.2692 7.73828 3.2692 8.05486 3.46447 8.25013L6.64645 11.4321ZM6.5 0.521484L6.5 11.0786L7.5 11.0786L7.5 0.521484L6.5 0.521484Z" fill="#002970"/>
</svg>
