<svg width="25" height="25" viewBox="0 0 25 25" fill="none" xmlns="http://www.w3.org/2000/svg">
<path d="M11.0117 14.9607L15.1199 12.5018L11.0117 10.043V14.9607Z" fill="black"/>
<path d="M12.4995 0C5.59418 0 0 5.59441 0 12.5C0 19.4056 5.59418 25 12.4995 25C19.4048 25 24.999 19.4056 24.999 12.5C25.0864 5.59441 19.4922 0 12.4995 0ZM20.3663 12.5874C20.3663 13.8112 20.2789 15.1224 20.0167 16.3462C19.8419 17.0455 19.3174 17.5699 18.6181 17.7448C16.6077 18.007 14.5099 18.0944 12.4995 18.0944C10.4891 18.0944 8.39127 18.007 6.38086 17.7448C5.769 17.4825 5.24454 16.958 4.98232 16.3462C4.72009 15.1224 4.63268 13.8112 4.63268 12.5874C4.63268 11.3636 4.72009 10.0524 4.98232 8.82867C5.24454 8.12937 5.769 7.60489 6.38086 7.34266C8.39127 7.08042 10.4891 6.99301 12.4995 6.99301C14.5099 6.99301 16.6077 7.08042 18.6181 7.34266C19.3174 7.51748 19.8419 8.04196 20.0167 8.74126C20.2789 10.0524 20.3663 11.2762 20.3663 12.5874Z" fill="black"/>
</svg>
