<svg width="25" height="25" viewBox="0 0 25 25" fill="none" xmlns="http://www.w3.org/2000/svg">
<path d="M14.9822 24.832C14.8951 24.832 14.808 24.832 14.6338 24.9164C14.7209 24.832 14.8951 24.832 14.9822 24.832Z" fill="black"/>
<path d="M25 11.9976C25 5.36956 19.4251 0 12.4564 0C5.57491 0 0 5.36956 0 11.9976C0 18.6256 5.57491 23.9952 12.4564 23.9952C12.5436 23.9952 12.6307 23.9952 12.7178 23.9952V14.6824H10.0174V11.662H12.7178V9.48062C12.7178 6.87974 14.3728 5.53735 16.7247 5.53735C17.5087 5.53735 18.2927 5.53735 19.1638 5.62125V8.30603H17.5087C16.2021 8.30603 15.9408 8.89333 15.9408 9.73232V11.662H19.0767L18.6411 14.6824H15.9408V23.5757C21.2544 22.1494 25 17.3672 25 11.9976Z" fill="black"/>
</svg>
