<svg width="25" height="25" viewBox="0 0 25 25" fill="none" xmlns="http://www.w3.org/2000/svg">
<path d="M12.5 0C5.59441 0 0 5.59441 0 12.5C0 19.4056 5.59441 25 12.5 25C19.4056 25 25 19.4056 25 12.5C25 5.59441 19.4056 0 12.5 0ZM8.82867 18.9685H5.76923V9.79021H8.82867V18.9685ZM7.34266 8.47902C6.46854 8.56643 5.68182 7.86713 5.59441 6.99301C5.507 6.11888 6.2063 5.33217 7.08042 5.33217C7.16784 5.33217 7.25525 5.33217 7.34266 5.33217C8.21679 5.24475 9.0035 5.94406 9.0035 6.81818C9.0035 7.69231 8.39161 8.47902 7.51749 8.47902C7.51749 8.47902 7.43008 8.47902 7.34266 8.47902ZM19.8426 18.9685H16.7832V14.0734C16.7832 12.8497 16.3462 11.9755 15.2098 11.9755C14.5105 11.9755 13.8986 12.4126 13.6364 13.1119C13.549 13.3741 13.5489 13.6364 13.5489 13.8986V19.0559H10.4895C10.4895 19.0559 10.4895 10.7517 10.4895 9.87762H13.5489V11.1888C14.0734 10.2273 15.2098 9.61538 16.2587 9.7028C18.2692 9.7028 19.7552 11.014 19.7552 13.8112L19.8426 18.9685Z" fill="black"/>
</svg>
