<svg width="25" height="25" viewBox="0 0 25 25" fill="none" xmlns="http://www.w3.org/2000/svg">
<path d="M12.5 0C5.59441 0 0 5.59441 0 12.5C0 19.4056 5.59441 25 12.5 25C19.4056 25 25 19.4056 25 12.5C25 5.59441 19.4056 0 12.5 0Z" fill="black"/>
<path fill-rule="evenodd" clip-rule="evenodd" d="M6 12.066C6 9.20662 6 7.77657 6.88866 6.88866C7.77733 6.00076 9.20662 6 12.066 6H13.5825C16.4418 6 17.8719 6 18.7598 6.88866C19.6477 7.77733 19.6484 9.20662 19.6484 12.066V13.5825C19.6484 16.4418 19.6484 17.8719 18.7598 18.7598C17.8711 19.6477 16.4418 19.6484 13.5825 19.6484H12.066C9.20662 19.6484 7.77657 19.6484 6.88866 18.7598C6.00076 17.8711 6 16.4418 6 13.5825V12.066ZM17.3737 9.41211C17.3737 9.71376 17.2539 10.0031 17.0406 10.2164C16.8273 10.4296 16.538 10.5495 16.2363 10.5495C15.9347 10.5495 15.6454 10.4296 15.4321 10.2164C15.2188 10.0031 15.099 9.71376 15.099 9.41211C15.099 9.11046 15.2188 8.82117 15.4321 8.60787C15.6454 8.39457 15.9347 8.27474 16.2363 8.27474C16.538 8.27474 16.8273 8.39457 17.0406 8.60787C17.2539 8.82117 17.3737 9.11046 17.3737 9.41211ZM14.3407 13.5825C14.3407 13.9847 14.1809 14.3704 13.8965 14.6548C13.6121 14.9392 13.2264 15.099 12.8242 15.099C12.422 15.099 12.0363 14.9392 11.7519 14.6548C11.4675 14.3704 11.3077 13.9847 11.3077 13.5825C11.3077 13.1803 11.4675 12.7945 11.7519 12.5101C12.0363 12.2257 12.422 12.066 12.8242 12.066C13.2264 12.066 13.6121 12.2257 13.8965 12.5101C14.1809 12.7945 14.3407 13.1803 14.3407 13.5825ZM15.8572 13.5825C15.8572 14.3869 15.5377 15.1583 14.9689 15.7271C14.4001 16.2959 13.6286 16.6155 12.8242 16.6155C12.0198 16.6155 11.2484 16.2959 10.6796 15.7271C10.1108 15.1583 9.79123 14.3869 9.79123 13.5825C9.79123 12.7781 10.1108 12.0066 10.6796 11.4378C11.2484 10.869 12.0198 10.5495 12.8242 10.5495C13.6286 10.5495 14.4001 10.869 14.9689 11.4378C15.5377 12.0066 15.8572 12.7781 15.8572 13.5825Z" fill="white"/>
</svg>
