<?xml version="1.0" encoding="utf-8"?>
<!-- Generator: Adobe Illustrator 22.0.1, SVG Export Plug-In . SVG Version: 6.00 Build 0)  -->
<svg version="1.1" id="Layer_1" xmlns="http://www.w3.org/2000/svg" xmlns:xlink="http://www.w3.org/1999/xlink" x="0px" y="0px"
	 width="219.7px" height="80.2px" viewBox="0 0 219.7 80.2" enable-background="new 0 0 219.7 80.2" xml:space="preserve">
<path fill="#FFFFFF" d="M61.9,38.1C61.9,38.1,61.9,38.1,61.9,38.1C61.9,38.1,61.9,38.1,61.9,38.1 M1.6,37.6
	C1.6,37.7,1.6,37.7,1.6,37.6c0.1,0.1,0.1,0.1,0.2,0.1c1.3,0.4,2.6,0.7,3.8,1.1c0,0,0.1,0,0.1,0C4.4,38.5,3,38.1,1.6,37.6
	C1.6,37.6,1.6,37.6,1.6,37.6 M81.2,48.3c-3.6-0.6-12.9-0.6-18.6-0.5c-0.3-0.1-0.6-0.3-0.9-0.4c-2.4-1.1-4.9-2.3-7.3-3.4
	c0.4-0.4,0.8-0.8,1.2-1.1c0,0,0,0,0,0c3.6,1.3,9.2,3.3,12.8,4.5h0c0,0,0,0,0,0v0c0.3,0.1,0.8-0.4,1-1.1c0.2-0.7,0.1-1.4-0.1-1.5
	c0,0-8.3-2.9-11.4-4c1.7-1.5,3.4-2.9,5.1-4.3c1.7-1.4,3.4-2.9,5.1-4.3c0.9-0.7,1.7-1.4,2.6-2.1c1.7-1.4,3.5-2.8,5.3-4.1
	c0.5-0.3,0.9-0.6,1.4-0.9c0.3-0.2,0.6-0.4,0.9-0.5c0.2-0.1,0.4-0.2,0.6-0.3c0,0,0,0,0,0c0,0,0,0,0,0c0,0,0.1,0,0.1-0.1
	c0-0.1,0.1-0.3,0-0.4c-0.1,0-0.2,0.1-0.3,0.1c0,0,0,0,0-0.1c-0.5,0.2-0.9,0.5-1.4,0.7c-0.1,0-0.2,0.1-0.3,0.1c0,0-0.1,0-0.1,0
	c-0.7,0.3-1.3,0.7-2,1c-0.6,0.3-1.2,0.6-1.8,0.9c-0.6,0.3-1.2,0.6-1.8,0.9c-2.4,1.3-4.9,2.6-7.3,3.9c0.3-0.2,0.5-0.4,0.8-0.6
	c0.3-0.2,0.6-0.3,0.9-0.5c1.8-1,3.7-2,5.6-3c1.2-0.7,2.5-1.3,3.8-2c1.1-0.6,2.2-1.1,3.4-1.7c0.1-0.1,0.4-0.2,0.6-0.2
	c0,0,0.1,0,0.1,0c0.1,0,0.1,0.1,0.2,0.1c0.1,0.1,0.1,0.4,0.1,0.6c0,0.1-0.1,0.1-0.1,0.1c0,0,0,0-0.1,0.1c0,0-0.1,0.1-0.2,0.1
	c-0.3,0.2-0.6,0.4-0.9,0.5c-0.6,0.4-1.2,0.8-1.7,1.2c-0.2,0.1-0.4,0.3-0.6,0.4c-1.1,0.8-2.2,1.7-3.3,2.5c-0.7,0.6-1.5,1.2-2.2,1.8
	c-0.2,0.1-0.3,0.3-0.5,0.4c-1.6,1.3-3.2,2.7-4.7,4c-1,0.9-2.1,1.8-3.1,2.7c0,0,0,0,0,0c2.5-2.1,5-4.2,7.6-6.3
	c-2.1,1.7-4.1,3.5-6.2,5.3c0,0,0,0,0,0c0.3-0.2,0.5-0.4,0.8-0.6c-0.8,0.8-1.6,1.6-2.5,2.3c-0.6,0.6-1.3,1.1-1.9,1.7
	c-0.2,0.2-0.4,0.3-0.5,0.5c0,0-0.1,0.1,0,0.1c0.2-0.2,0.4-0.4,0.7-0.6c1.1-1,2.2-1.9,3.3-2.9c0.9-0.8,1.8-1.5,2.7-2.3
	c0.4-0.4,0.9-0.7,1.3-1.1c0,0,0,0,0,0c0,0,0.1-0.1,0.1-0.1c0.8-0.7,1.7-1.4,2.5-2.1c1.3-1.1,2.7-2.2,4.1-3.3
	c0.7-0.5,1.4-1.1,2.1-1.6c0.2-0.2,0.5-0.3,0.7-0.5c0.8-0.5,1.5-1,2.3-1.4c0.3-0.2,0.6-0.3,0.7-0.5c0.2-0.2,0.3-0.6,0.2-1
	c-0.1-0.3-0.2-0.6-0.5-0.7c0.1,0.1,0.3,0.3,0.3,0.5c0.1,0.2,0.1,0.4,0.1,0.7c0,0.1-0.1,0.2-0.1,0.3c-0.1,0.2-0.2,0.3-0.3,0.5
	c-0.1,0.1-0.2,0.1-0.2,0.2c-0.2,0.1-0.4,0.2-0.5,0.3c-0.5,0.3-1,0.6-1.5,0.9c-0.3,0.2-0.7,0.4-1,0.6c0.7-0.6,1.5-1.1,2.3-1.6
	c0.2-0.1,0.4-0.2,0.6-0.4c0.2-0.1,0.4-0.3,0.5-0.5c0.1-0.3,0.1-0.6,0-0.8c-0.1-0.2-0.3-0.4-0.5-0.5c0.3-0.2,0.7-0.3,1-0.5
	c0.2-0.1,0.5-0.3,0.6-0.5c0.1-0.1,0.1-0.1,0.2-0.2c0.1-0.1,0.2-0.3,0.2-0.4c0.1-0.2,0.1-0.4,0.1-0.5c0-0.2-0.1-0.4-0.1-0.6
	c-0.1-0.2-0.1-0.3-0.2-0.4c-0.2-0.3-0.5-0.4-0.8-0.5c-0.2,0-0.4-0.1-0.6-0.1c-1.8,0.2-3.4,0.8-4.9,1.3c0.3-0.1,0.7-0.2,1-0.3
	c-1,0.4-2.1,0.8-3,1.2c-0.6,0.3-1.1,0.6-1.6,0.9c0.5-0.4,0.9-0.8,1.4-1.2c0.4-0.4,0.8-0.9,1.2-1.4c0.2-0.2,0.4-0.5,0.5-0.8
	c0.2-0.3,0.3-0.6,0.4-0.9c0-0.2,0.1-0.4,0-0.6c0-0.2-0.1-0.3-0.3-0.4c-0.1-0.1-0.2-0.2-0.4-0.3c-0.1-0.1-0.3-0.2-0.5-0.2
	c-0.1,0-0.2,0-0.3,0c-0.5,0.1-0.8,0.3-1.1,0.5c-0.1,0.1-0.3,0.2-0.4,0.3c-1,0.8-1.9,1.5-2.9,2.3c-1.4,1.2-2.8,2.4-4.2,3.7
	c-1.3,1.2-2.7,2.3-4,3.5c-0.1,0.1-0.1,0.1-0.2,0.2c-1.9,1.6-3.7,3.3-5.6,4.9c-1.4,1.2-2.8,2.5-4.2,3.7c1-1,2-2,3-2.9
	c0.3-0.2,0.5-0.5,0.8-0.7c0.3-0.2,0.5-0.5,0.8-0.7c0.3-0.2,0.5-0.5,0.8-0.7c0.3-0.2,0.5-0.5,0.8-0.7c2-2,4-4,6-6
	c2.5-2.5,5-5,7.4-7.5c0.4-0.4,0.7-0.8,1.1-1.2c0.1-0.1,0.2-0.3,0.3-0.4c0.2-0.3,0.3-0.6,0.3-1c0-0.1,0-0.2,0-0.3
	c0-0.2-0.2-0.5-0.4-0.7c0,0-0.1-0.1-0.2-0.1c-0.2-0.1-0.3-0.2-0.5-0.2c-0.2,0-0.4,0-0.7,0.1c-0.4,0.1-0.7,0.3-1,0.5
	c0,0-0.4,0.2-0.6,0.4c0.1-0.1,0.3-0.3,0.5-0.4c0,0,0,0,0,0c0,0,0,0,0,0c0.4-0.4,0.4-0.9,0.2-1.2c-0.3-0.3-0.9-0.3-1.3,0.1
	c-0.1,0.1-0.2,0.2-0.3,0.3c-0.7,0.7-1.3,1.4-2,2.1c-0.2,0.2-0.4,0.4-0.6,0.6c-0.6,0.5-1.2,1.1-1.8,1.6c-0.4,0.4-0.8,0.7-1.2,1.1
	c-0.4,0.4-0.8,0.7-1.2,1.1c-0.6,0.5-1.2,1.1-1.8,1.6c-0.2,0.2-0.4,0.3-0.6,0.5c0.5-0.4,1-0.7,1.5-1.1c-0.9,0.8-1.8,1.6-2.7,2.3
	c-0.9,0.8-1.8,1.6-2.7,2.4c-1.8,1.5-3.5,3.1-5.3,4.7c0,0-0.1,0.1-0.1,0.1c0-1.2,0-3.5-0.1-3.6c0-0.2-0.3-0.3-0.7-0.3
	c-0.1,0-0.2,0-0.3,0c0-1.8,0.1-3.5,0.1-5.3v0c0-0.4-0.5-0.7-1-0.7c0,0-0.1,0-0.1,0c0,0-0.1,0-0.1,0c0,0-0.1,0-0.2,0s-0.1,0-0.1,0
	c0,0-0.1,0-0.1,0.1c0,0-0.1,0-0.1,0.1c0,0-0.1,0-0.1,0.1c0,0-0.1,0.1-0.1,0.1c0,0,0,0.1-0.1,0.1c0,0,0,0.1,0,0.1c0,0,0,0.1,0,0.1
	c0,0,0,0,0,0c0,0,0,0,0,0v0c0,0,0,0,0,0v0v0c0,0,0,0,0,0v0c0,0,0,0,0,0v0.1c0,0,0,0,0,0.1c0,0,0,0,0,0.1c0,0,0,0,0,0.1
	c0,0,0,0,0,0.1c0,0,0,0,0,0.1c0,0,0,0.1,0,0.1c0,0,0,0.1,0,0.1c0,0,0,0.1,0,0.1c0,0,0,0.1,0,0.1c0,0,0,0.1,0,0.1c0,0,0,0.1,0,0.1
	l0,0.1c0,0,0,0.1,0,0.1c0,0,0,0.1,0,0.1c0,0,0,0.1,0,0.1c0,0,0,0.1,0,0.1c0,0,0,0.1,0,0.1c0,0,0,0.1,0,0.1l0,0.1c0,0,0,0.1,0,0.1
	c0,0,0,0.1,0,0.1c0,0,0,0.1,0,0.1c0,0,0,0.1,0,0.1c0,0,0,0.1,0,0.1c0,0,0,0.1,0,0.1c0,0,0,0.1,0,0.1c0,0,0,0.1,0,0.1
	c0,0,0,0.1,0,0.1c0,0,0,0.1,0,0.1l0,0.1c0,0,0,0.1,0,0.1l0,0.1c0,0,0,0.1,0,0.1l0,0.1c0,0,0,0.1,0,0.1c0,0,0,0.1,0,0.1l0,0.1
	c0,0,0,0.1,0,0.1c0,0,0,0.1,0,0.1c0,0,0,0.1,0,0.1c0,0,0,0.1,0,0.1c0,0,0,0.1,0,0.1c0,0,0,0.1,0,0.1c0,0,0,0.1,0,0.1
	c0,0,0,0.1,0,0.1c0,0,0,0.1,0,0.1c0,0.1,0,0.1,0,0.1c0,0,0,0.1,0,0.1c0,0,0,0.1,0,0.1c0,0,0,0.1,0,0.1l0,0.1c0,0,0,0.1,0,0.1
	c0,0,0,0.1,0,0.1c0,0,0,0.1,0,0.1c0,0,0,0.1,0,0.1c0,0,0,0.1,0,0.1c0,0,0,0.1,0,0.1c0,0,0,0.1,0,0.1c0,0,0,0.1,0,0.1
	c0,0,0,0.1,0,0.1c0,0,0,0.1,0,0.1c0,0,0,0.1,0,0.1c0,0,0,0.1,0,0.1c0,0,0,0.1,0,0.1c0,0,0,0.1,0,0.1c0,0,0,0.1,0,0.1
	c0,0,0,0.1,0,0.1c0,0,0,0.1,0,0.1c0,0,0,0.1,0,0.1c0,0,0,0.1,0,0.1c0,0,0,0.1,0,0.1c0,0,0,0,0,0.1v0c0,0,0,0,0,0s0,0,0,0
	c-0.1-0.2-0.2-0.5-0.3-0.7c0-0.1-0.1-0.2-0.1-0.3c0-0.5,0-1-0.1-1.5c0-0.5-0.1-1-0.1-1.5c-0.1-1-0.1-1.9-0.2-2.9
	c-0.1-2.7-0.3-5.3-0.4-8c0-0.1,0-0.2,0-0.4c0-0.1,0-0.2,0-0.4c0.3-2.7,0.9-8.1,0.9-8.3c0-1.1-0.5-2-1.2-2c-0.7,0-1.3,0.8-1.4,1.9
	c0,0.2,0.2,4,0.3,6c0,0.2,0,0.3,0,0.5c0,0.3-0.1,0.6-0.1,0.9c-0.2-1.5-0.4-2.9-0.7-4.4c-0.3-1.4-0.5-2.8-0.9-4.2
	c-0.2-0.7-0.4-1.4-0.8-2.1C41.4,0.8,40.8,0.2,40,0c-0.7-0.1-1.2,0.1-1.6,0.4c-0.5,0.4-0.8,1-0.9,1.6c-0.1,0.7,0,1.5,0.1,2.2
	c0.3,1.7,0.4,3.5,0.6,5.2c0.1,1,0.2,1.9,0.4,2.9c-0.2-0.5-0.5-1-0.7-1.4C36.4,7.5,34.8,4,33.2,0.6c0,0,0,0,0,0c0,0,0,0,0,0
	c0.7,1.5,1.4,3.1,2.1,4.6c-0.8-1.5-1.5-3.1-2.2-4.6c-0.5,0.2-0.9,0.4-1.4,0.6c0,0,0,0,0,0c1.9,4.4,3.9,8.9,5.8,13.3
	c0.6,1.4,1.2,2.8,1.8,4.2c0,0.1,0.1,0.2,0.1,0.3c-1.5-3.3-3-6.6-4.6-9.8c0,0,0,0,0,0c1.1,2.4,2.2,4.9,3.3,7.4c0,0.1,0.1,0.2,0.1,0.2
	c-1.4-3-2.8-6-4.3-8.9c0,0,0-0.1,0-0.1c-0.1,0-0.2,0.1-0.3,0.1c-0.9-2.2-2.6-6.4-2.7-6.5c-0.4-1-1.3-1.5-2-1.2
	c-0.8,0.3-0.9,1.3-0.8,2c0.1,0.6,0.3,1.1,0.5,1.6c0.2,0.6,0.4,1.1,0.6,1.7c0.1,0.2,0.1,0.3,0.2,0.5c0,0.1,0.1,0.3,0.2,0.5
	c-0.4-0.5-0.9-0.8-1.4-0.6c-0.5,0.2-0.7,1-0.4,2c-0.4-0.5-0.9-0.8-1.3-0.6c-0.5,0.2-0.7,1.2-0.3,2.1c0,0,0,0.1,0,0.1
	c0,0.1,0.1,0.2,0.1,0.2c0.4,1,0.8,2,1.2,3c-0.3-0.5-0.6-1.1-0.9-1.6c-0.1-0.1-0.1-0.2-0.2-0.3c-0.2-0.2-0.5-0.2-0.8-0.1
	c-0.2,0.1-0.4,0.3-0.4,0.6c0,0.2,0.1,0.3,0.1,0.4c0,0.1,0.1,0.2,0.2,0.4c0.6,1.5,1.2,2.8,1.8,4.3c1.2,2.9,2.4,5.7,3.7,8.5
	c0.8,1.8,1.6,3.5,2.3,5.3c0.1,0.1,0.1,0.2,0.1,0.3c-0.9-1.9-1.8-3.9-2.7-5.8c1.1,2.6,2.2,5.2,3.4,7.8c0,0.1,0.1,0.2,0.1,0.2
	c-0.2,0-0.3-0.1-0.5-0.2c-0.2-0.1-0.3-0.1-0.5-0.2c-0.1-0.1-3.4-1.7-3.7-1.8c-0.9-0.4-11.2-4.9-11.7-5c-0.1,0-0.1,0-0.1-0.1
	c-1.2-0.6-1.6,0.7-1.5,1c-0.4-0.2-0.9-0.3-1.3-0.5c-0.4-0.2-1.3-0.5-1.3-0.5c-0.2-0.1-0.5,0.2-0.7,0.6c-0.1,0.2-0.1,0.5-0.1,0.6
	c-0.5-0.1-1.1-0.3-1.6-0.4c-0.3-0.1-0.6-0.2-0.8-0.3c-0.3-0.1-0.6-0.2-0.9-0.2c-0.3-0.1-0.7-0.1-1-0.1c-0.3,0-0.7,0.2-1,0.4
	c-0.3,0.3-0.3,0.7-0.2,1.1c0.1,0.4,0.3,0.7,0.5,1C8,28,8.1,28.1,8.2,28.1c0.1,0.1,0.1,0.2,0.2,0.2c0.1,0.1,0.2,0.2,0.3,0.3
	c0.1,0.1,0.2,0.2,0.3,0.3c0.1,0.1,0.3,0.2,0.4,0.2c0.1,0.1,0.3,0.2,0.5,0.2c0.2,0.1,0.3,0.2,0.5,0.2c0.2,0.1,0.4,0.2,0.6,0.2
	c0.2,0.1,0.4,0.1,0.6,0.2c0.1,0,0.1,0,0.2,0.1c-0.2,0-0.5-0.1-0.7-0.1c-0.2,0.6-0.4,1.4-0.4,1.4c0,0,0,0,0,0s9.9,4.2,15,6.3
	c-2.9-1-5.9-1.8-8.9-2.8c-1-0.3-2-0.6-3-0.9c-2-0.6-4-1.2-6.3-1.5c-0.6-0.1-1.2-0.1-1.8-0.2c-0.3,0-0.6-0.1-0.9-0.1
	c-0.3,0-0.6-0.1-0.9-0.1c-0.1,0-0.3,0-0.4-0.1c-0.1,0-0.2-0.1-0.4-0.1c-0.6-0.2-1.2-0.4-1.8-0.6c-0.1,0-0.2-0.1-0.3-0.1
	c0,0,0,0-0.1,0c-0.4-0.1-0.8,0.3-0.9,0.9c-0.1,0.5,0.1,1,0.5,1.1c0,0,0.1,0,0.1,0c0,0,0.1,0,0.1,0c0.9,0.1,1.8,0.2,2.7,0.3
	c0.2,0,0.4,0.1,0.6,0.2c0.6,0.2,1.3,0.4,1.8,0.6c-0.1,0.3-0.2,0.6-0.3,0.9c-0.1,0.2-0.1,0.4-0.2,0.6c0,0.1,0,0.1,0,0.1
	c0.7,0.2,1.3,0.4,2,0.6c4.7,1.4,9.4,2.8,14.1,4.2c-0.1,0.4-0.3,0.8-0.4,1.2c-1.5-0.5-2.9-1-4.4-1.5c-0.7-0.2-1.5-0.5-2.2-0.8
	c-1.5-0.5-3.1-1.1-4.5-1.5c0,0-0.2-0.1-0.1,0c0.1,0,0.2,0.1,0.3,0.1c1.3,0.5,2.5,0.9,3.8,1.3c0.6,0.2,1.3,0.4,1.9,0.7
	c0.1,0,0.2,0.1,0.2,0.1c-0.6-0.1-1.2-0.3-1.8-0.5c-1.2-0.4-2.4-0.7-3.5-1.1c-0.6-0.2-1.2-0.4-1.7-0.6c-0.6-0.2-1.3-0.4-1.9-0.7
	c-0.3-0.1-0.9-0.3-1.6-0.6c-1-0.4-2.1-0.7-3.1-1.1C2.3,36,2.2,36,2.2,36c-0.3-0.1-0.7,0.2-0.8,0.6c-0.1,0.4,0,0.9,0.3,1
	c0.1,0,0.1,0,0.1,0c0.1,0,0.2,0,0.3,0.1c2.4,0.7,4.9,1.4,7.3,2c0.3,0.1,0.5,0.1,0.8,0.2c1.2,0.4,2.4,0.9,3.6,1.3
	c-0.6-0.1-1.2-0.3-1.8-0.5c0,0,0,0,0,0c0.8,0.2,1.6,0.4,2.3,0.6c0.4,0.1,0.7,0.3,1.1,0.4c0.4,0.1,0.7,0.3,1.1,0.4
	c1.5,0.5,2.9,1,4.4,1.5c1.5,0.5,2.9,1,4.4,1.5c1.5,0.5,2.9,1,4.4,1.5C25.9,50,22.2,53.2,19,56.9c-0.6,0.7-1.2,1.4-1.8,2.1
	c-0.1,0.1-0.1,0.2-0.2,0.2c-0.2,0.1-0.3,0.2-0.5,0.4c0,0-0.8,0.6-0.9,0.8c-0.1,0.2,0.1,0.6,0.5,0.9c0.4,0.3,0.9,0.4,1,0.1l0,0
	c0,0,0,0,0,0c0,0,0,0,0,0c0,0,0,0,0,0c0.2-0.4,0.4-0.8,0.7-1.1c0.1-0.1,0.1-0.2,0.2-0.3c0.1-0.1,0.2-0.1,0.3-0.2
	c0.2-0.1,0.3-0.3,0.5-0.4c4.7-3.8,9.4-7.6,14.1-11.4c0.1-0.1,0.2-0.2,0.3-0.2c0,0,0.1,0,0.2,0.1c0.2,0.1,0.3,0.1,0.5,0.2
	c-1.1,1.2-2.2,2.4-3.4,3.7c-0.3,0.3-0.6,0.6-0.8,0.9c-0.6,0.6-1.1,1.2-1.7,1.8c-0.3,0.3-0.6,0.6-0.8,1c0.1,0,0.1-0.1,0.2-0.1
	c-2,2.1-6.1,6.2-6.1,6.2c0.1,0.1,0.2,0.2,0.3,0.3c-1,0.9-1.9,1.8-2.9,2.7c0.1,0.1,0.2,0.2,0.3,0.3c-0.4,0.3-0.8,0.7-1.2,1
	c0,0-0.2,0.2-0.2,0.2c-0.2,0.2,0,0.7,0.4,1.2c0.4,0.4,0.8,0.7,1,0.6c0,0,0,0,0,0c-0.6,0.6-1.5,1.4-2.1,2c-0.1,0.1-0.3,0.3-0.3,0.3
	c-0.2,0.2-0.3,0.9-0.2,1.3c0,0.1,0.1,0.3,0.2,0.4c-0.6,0.5-1.1,0.9-1.6,1.4c-0.1,0.1-0.1,0.1-0.1,0.1c-0.1,0.2-0.1,0.5,0.2,0.9
	c0.3,0.4,0.7,0.5,0.9,0.4c0,0,0,0,0,0c0,0.2,0,0.4,0.1,0.5c0.2,0.3,0.4,0.4,0.6,0.4c0,0,0.1,0,0.1,0c0,0,0.1-0.1,0.1-0.1
	c1.8-1.5,3.7-2.9,5.5-4.4c0.6-0.5,1.2-1,1.9-1.5c-0.6,0.8-1.1,1.6-1.7,2.4c-0.1,0.1-0.1,0.1-0.2,0.2c-0.2,0.2-0.5,0.5-0.8,0.8
	c-0.5,0.5-1,1-1.5,1.5c-0.4,0.4-0.9,0.8-1.3,1.3c-0.1,0.1-0.2,0.2-0.2,0.2c-0.4,0.4-0.4,1.1,0,1.5c0,0,0,0,0,0c0,0,0,0,0,0
	c0,0,0,0,0.1,0c0,0,0,0,0.1,0c0,0,0,0,0.1,0c0,0,0.1,0,0.1,0c0,0,0.1,0,0.1,0c0,0,0.1,0,0.1,0c0,0,0.1,0,0.1,0c0,0,0.1,0,0.1,0
	c0,0,0.1,0,0.1,0c0,0,0.1,0,0.1,0c0,0,0.1,0,0.1,0c0,0,0.1,0,0.1,0c0,0,0.1,0,0.1,0c0,0,0.1,0,0.1,0c0,0,0.1,0,0.1,0
	c0,0,0.1,0,0.1-0.1c0,0,0,0,0.1-0.1c0,0,0,0,0.1-0.1c0,0,0.1-0.1,0.1-0.1c0,0,0,0,0,0c0,0,0,0,0,0c0,0,0,0,0,0c0,0,0,0,0,0
	c0,0,0,0,0-0.1c0,0,0,0,0-0.1c0,0,0,0,0-0.1c0,0,0,0,0.1-0.1c0,0,0,0,0.1-0.1c0,0,0-0.1,0.1-0.1c0,0,0-0.1,0.1-0.1
	c0,0,0-0.1,0.1-0.1c0,0,0-0.1,0.1-0.1c0,0,0.1-0.1,0.1-0.1c0,0,0-0.1,0.1-0.1c0,0,0.1-0.1,0.1-0.1c0,0,0.1-0.1,0.1-0.1
	c0,0,0.1-0.1,0.1-0.1c0,0,0.1-0.1,0.1-0.1c0,0,0.1-0.1,0.1-0.1c0,0,0.1-0.1,0.1-0.1c0,0,0.1-0.1,0.1-0.1c0,0,0.1-0.1,0.1-0.1
	c0,0,0.1-0.1,0.1-0.1c0,0,0.1-0.1,0.1-0.1c0,0,0.1-0.1,0.1-0.1c0,0,0.1-0.1,0.1-0.1c0,0,0.1-0.1,0.1-0.1c0,0,0.1-0.1,0.1-0.1
	c0,0,0.1-0.1,0.1-0.1c0,0,0.1-0.1,0.1-0.1c0,0,0.1-0.1,0.1-0.1c0,0,0.1-0.1,0.1-0.1c0,0,0.1-0.1,0.1-0.1c0,0,0.1-0.1,0.1-0.1
	c0,0,0.1-0.1,0.1-0.1c0,0,0.1-0.1,0.1-0.1c0,0,0.1-0.1,0.1-0.1c0,0,0-0.1,0.1-0.1c0,0,0.1-0.1,0.1-0.1c0,0,0-0.1,0.1-0.1
	c0.2-0.3,0.4-0.6,0.6-0.8c0.2-0.2,0.5-0.5,0.7-0.7c0.7-0.7,1.5-1.4,2.2-2.1c0.7-0.7,1.5-1.4,2.2-2.1c0.2-0.2,0.5-0.5,0.7-0.7
	c0.5-0.5,1-0.9,1.5-1.4c0.2-0.2,0.5-0.5,0.7-0.7c0.5-0.5,1-0.9,1.5-1.4c0.7-0.7,1.5-1.4,2.2-2.1c0.1-0.1,0.2-0.2,0.4-0.4
	c0.4-0.4,0.7-0.7,1.1-1.1c0.2-0.2,0.5-0.5,0.7-0.7c0.1-0.1,0.3-0.2,0.4-0.3c0.8-0.6,1.6-1.3,2.4-1.9c0.9-0.8,1.9-1.5,2.8-2.3
	c-6.5,6.7-13,13.5-19.5,20.2c0,0-0.1,0.1-0.1,0.1c0,0,0,0,0,0c0,0,0,0,0,0c1.8-1.8,3.6-3.6,5.4-5.4c1.1-1.1,2.2-2.3,3.4-3.4
	c0.7-0.7,1.3-1.4,2-2c0.9-0.9,1.8-1.8,2.7-2.7c1.8-1.8,3.6-3.6,5.4-5.5c0.9-0.9,1.7-1.7,2.6-2.6c0,0,0.1-0.1,0.1-0.1
	c0,0.1,0.1,0.2,0.2,0.4c0,0.1,0,0.3,0.1,0.4c0.1,0.3,0.1,0.7,0.2,1c0.3,3,0.8,7.2,0.9,7.6c0.2,1.2,0.3,2.3,0.5,3.5
	c0.4,2.6,2.2,13.2,2.6,13.9c0.2,0.4,0.5,0.7,0.9,0.7c0.4,0,0.9-0.4,0.9-0.8c0.1-0.5-0.1-1.1-0.1-1.6c0-1.3,0-2.6,0-4
	c0-0.4,0-0.8,0-1.2c0-0.7-0.1-1.5-0.1-2.2C51,69,50.8,67.5,50.6,66c0-0.4-0.3-2.7-0.3-3.1c2.3,4.6,7,13.7,7,13.7
	c0.1,0.2,0.5,0.1,0.9,0c0.4-0.2,0.7-0.5,0.6-0.7c0,0,0,0,0,0c-1.9-4.6-3.7-9.2-5.6-13.8c1.2,1.6,2.5,3.3,3.7,4.9
	c0.1,0.1,0.2,0.2,0.2,0.3c0.1,0.1,0.1,0.2,0.2,0.4c0.7,1.8,1.6,3.5,2.3,5.2c-1-1.7-1.8-3.5-2.7-5.4c0,0,0,0,0,0
	c0.5,1.3,1,2.6,1.5,3.8c0.5,1.2,1.2,2.4,1.9,3.5c0.3,0.5,0.7,1.1,1.1,1.6c0.3,0.4,0.6,0.7,1,1c0.3,0.3,0.9,0.5,1.5,0.4
	c0.3-0.1,0.6-0.3,0.8-0.6c0.2-0.3,0.3-0.6,0.3-1c0-0.4-0.1-0.8-0.2-1.1c0.4-0.2,0.8-0.3,1.1-0.5c0.1,0,0.1,0,0.2-0.1
	c-0.7-1.6-1.5-3.1-2.2-4.7c-0.7-1.6-1.5-3.1-2.2-4.7c-0.7-1.6-1.5-3.1-2.2-4.7c-0.7-1.6-1.5-3.1-2.3-4.6c0.3,0.1,0.6,0.2,0.9,0.3
	c3.3,6.8,6.6,13.5,10,20.2c0,0,0,0,0,0c-3.1-6.7-6.3-13.4-9.4-20.1c3.5,1.2,7.1,2.3,10.6,3.4c0,0,0,0,0,0c-1.8-0.6-3.6-1.3-5.4-1.9
	c-1.8-0.6-3.6-1.3-5.4-1.9c0,0,0,0,0,0c-0.2-0.4-0.4-0.9-0.6-1.3c1.6,0.5,3.2,1,4.8,1.5c0.2,0.1,0.5,0.1,0.7,0.2
	c2.3,0.7,4.6,1.4,7,2.1c0.5,0.1,0.9,0.3,1.4,0.4c0.9,0.3,1.8,0.6,2.7,0.9c0.9,0.3,1.8,0.6,2.7,0.9c0.7,0.2,1.3,0.5,2,0.8
	c0.2,0.1,0.5,0.3,0.5,0.3c0,0,0.1,0,0.1,0h0h0c0.5,0,1.1-0.9,1.4-2c0.4-1.2,0.3-2.4-0.2-2.6c0,0-0.3,0-0.3-0.1
	c0.1-0.5,0.1-1-0.3-1.1c0,0-7.6-2.4-11.3-3.6c-0.5-0.2-1.1-0.3-1.6-0.5c-2.1-0.7-4.2-1.3-6.3-2c0.2,0,0.5,0,0.7,0
	c0.4,0.1,3.3,1.1,4.2,1.3c1.5,0.5,3,0.9,4.5,1.4c1.4,0.5,4.3,1.4,4.3,1.4c0,0,0.1,0,0.1,0c0.1-0.1,0.3-0.2,0.3-0.4
	c0.1-0.2,0.1-0.5,0-0.6c0,0,0,0-0.1-0.1c0,0-0.1,0-0.1,0c-0.4-0.1-0.8-0.3-1.2-0.4c-1.4-0.5-2.8-0.9-4.2-1.4
	c-0.9-0.3-1.9-0.6-2.8-0.9c-0.3-0.1-0.7-0.2-1-0.3C75.1,49.7,84.9,48.9,81.2,48.3 M20.6,43c-0.5-0.1-1.1-0.3-1.6-0.5
	c0.1,0,0.3,0.1,0.4,0.1c0.3,0.1,0.6,0.2,0.8,0.3c0.1,0,0.3,0.1,0.4,0.1C20.7,43.1,20.7,43,20.6,43 M44.4,23.4c0-0.2,0-0.5,0.1-0.7
	c0-0.3,0.1-0.6,0.1-0.9c0.1,0.8,0.2,1.6,0.4,2.5c0,0.2,0.1,0.5,0.1,0.8c-0.2-0.4-0.4-0.8-0.6-1.2c0-0.1-0.1-0.1-0.1-0.2
	C44.4,23.6,44.4,23.5,44.4,23.4 M44.1,25.5c0-0.2,0.1-0.4,0.1-0.6c0.3,0.5,0.5,1.1,0.8,1.7c0,0.1,0.1,0.2,0.1,0.2c0,0.1,0,0.2,0,0.3
	c0,0.3,0,0.5,0,0.8c-0.3-0.7-0.7-1.4-1-2.1C44.1,25.7,44.1,25.7,44.1,25.5 M43.8,16.9c0,0.5-0.1,1-0.2,1.5c-0.1,0.7-0.1,1.4-0.2,2.1
	c0.2-1.2,0.3-2.4,0.5-3.7c0.1,0.2,0,0.5,0,0.8c-0.1,1.4-0.3,2.7-0.4,4.1c-0.1-0.1-0.1-0.3-0.2-0.4c0,0-0.1-0.1-0.1-0.1
	c0-0.1,0-0.2,0-0.3c0.2-1.5,0.4-3.1,0.6-4.6C43.8,16.4,43.8,16.7,43.8,16.9 M41.1,19.2c0-0.3-0.1-0.7-0.1-1c0.6,1.3,1.3,2.6,1.9,4
	c0,0.2-0.1,0.4-0.1,0.7C42.2,21.6,41.7,20.4,41.1,19.2 M42.7,23.9c0,0.1,0,0.2,0,0.4c-0.4-0.9-0.8-1.8-1.2-2.7
	c0-0.1-0.1-0.1-0.1-0.2c0-0.1,0-0.3-0.1-0.4C41.8,21.9,42.2,22.9,42.7,23.9 M40.5,19.1c0.2,0.3,0.3,0.7,0.5,1c0,0.1,0,0.2,0,0.3
	c-0.2-0.4-0.3-0.8-0.5-1.1C40.5,19.3,40.5,19.2,40.5,19.1 M40.7,17.6c0,0.3,0.1,0.6,0.1,0.9c-0.2-0.4-0.3-0.7-0.5-1.1
	c0-0.3-0.1-0.6-0.1-0.9C40.3,16.9,40.5,17.3,40.7,17.6 M40,15c0-0.3-0.1-0.6-0.1-0.8c0.2,0.4,0.4,0.8,0.6,1.2c0,0.2,0.1,0.4,0.1,0.7
	C40.3,15.7,40.2,15.4,40,15 M40.7,15.9c0.4,0.9,0.8,1.8,1.2,2.7c0,0,0,0,0,0c-0.1-0.1-0.2-0.3-0.2-0.4c-0.2-0.4-0.4-0.9-0.7-1.3
	c0-0.1-0.1-0.2-0.1-0.3c0-0.1,0-0.2,0-0.3C40.7,16.1,40.7,16,40.7,15.9 M42.8,24.2c0.1,0.2,0.2,0.3,0.2,0.5c0,0.2,0,0.3,0,0.4
	c-0.1-0.2-0.2-0.4-0.2-0.5C42.8,24.5,42.8,24.3,42.8,24.2 M43,23.3c0,0-0.1-0.1-0.1-0.1c0-0.1,0-0.2,0-0.3c0-0.1,0-0.2,0-0.3
	c0.1,0.2,0.2,0.3,0.3,0.5c0,0.2-0.1,0.4-0.1,0.7C43.1,23.6,43.1,23.4,43,23.3 M32,1.4c0,0,0-0.1-0.1-0.2c0-0.1-0.1-0.1,0-0.1
	c0,0,0,0,0,0.1c0.1,0.2,0.2,0.4,0.2,0.5c0.6,1.4,1.2,2.9,1.8,4.4C33.4,4.6,32.7,3,32,1.4 M34.2,4.2c-0.3-0.6-0.5-1.1-0.8-1.7
	c-0.2-0.4-0.5-1-0.7-1.5c0,0,0-0.1,0-0.1c0-0.1,0-0.1,0-0.1c0.1,0.1,0.1,0.1,0.1,0.2c0.7,1.5,1.4,3.1,2.2,4.6c1,2.1,2,4.3,3,6.4
	c0.2,0.4,0.4,0.9,0.7,1.4c0,0.1,0.1,0.1,0.1,0.2c0,0.1,0,0.1,0,0.2c0,0.2,0,0.4,0.1,0.6C37.3,11.1,35.8,7.6,34.2,4.2 M39.1,6.4
	c0,0.1,0,0.2,0.1,0.4c0-0.3-0.1-0.5-0.1-0.8c-0.1-1.1-0.2-2.1-0.3-3.2c0-0.4,0-0.8,0.2-1.1c0.2-0.2,0.5-0.5,0.8-0.5
	c0.5,0,1,0.7,1.2,1.2C41,2.7,41.1,3,41.2,3.3c0.1,0.3,0.2,0.6,0.2,0.9c0.4,1.2,0.6,2.4,0.9,3.7c0.3,1.2,0.5,2.6,0.7,3.9
	c0.2,1.2,0.4,2.3,0.6,3.4c0,0.2,0.1,0.3,0.1,0.5c0,0.1,0,0.2,0,0.3c-0.2,1.6-0.4,3.3-0.6,4.9c-0.7-1.6-1.5-3.2-2.3-4.8
	c-0.1-0.1-0.1-0.2-0.1-0.3c0-0.2,0-0.3-0.1-0.5c-0.2-1.2-0.3-2.4-0.5-3.7c-0.2-1.5-0.4-2.9-0.6-4.3c0,0.3,0.1,0.7,0.1,1
	c0.3,2.3,0.5,4.7,0.8,7c-0.2-0.3-0.3-0.7-0.5-1c0-0.1-0.1-0.1-0.1-0.1c0-0.1,0-0.2,0-0.2c-0.1-1.2-0.3-2.4-0.4-3.6
	C39.3,8.9,39.2,7.6,39.1,6.4 M35.7,15.8c0.1,0.1,0.2,0.4,0.2,0.5c1.3,3.1,2.5,6.1,3.8,9.2c0.2,0.4,0.3,0.8,0.5,1.2
	c0,0.1,0.1,0.1,0.1,0.2c0,0.1,0,0.2,0,0.4c-1.6-3.8-3.1-7.6-4.6-11.4C35.7,15.9,35.7,15.9,35.7,15.8C35.7,15.8,35.7,15.8,35.7,15.8
	 M37.8,46.3c0.1-0.1,0.3-0.3,0.4-0.5c0.1,0,0.2,0.1,0.3,0.1c0,0,0,0.1,0,0.1c-0.2,0.2-0.4,0.4-0.5,0.5c-0.1,0-0.2-0.1-0.3-0.1
	C37.7,46.4,37.8,46.3,37.8,46.3 M37.5,46.3C37.5,46.3,37.4,46.3,37.5,46.3C37.4,46.3,37.4,46.3,37.5,46.3c0.1-0.2,0.3-0.4,0.5-0.5
	C37.8,45.9,37.6,46.1,37.5,46.3 M35.7,15.8c0,0,0-0.1-0.1-0.1c0,0,0,0,0,0C35.6,15.7,35.7,15.7,35.7,15.8 M35.6,15.6
	C35.6,15.6,35.6,15.6,35.6,15.6C35.6,15.6,35.6,15.6,35.6,15.6 M35.6,15.6C35.6,15.6,35.6,15.5,35.6,15.6
	C35.6,15.5,35.6,15.6,35.6,15.6 M35.5,15.5C35.5,15.5,35.5,15.4,35.5,15.5C35.5,15.4,35.5,15.4,35.5,15.5 M35.5,15.4
	C35.5,15.4,35.5,15.4,35.5,15.4C35.5,15.4,35.5,15.4,35.5,15.4 M35.5,15.4C35.5,15.4,35.5,15.3,35.5,15.4
	C35.5,15.3,35.5,15.4,35.5,15.4 M35.5,15.3C35.5,15.3,35.4,15.2,35.5,15.3C35.5,15.2,35.5,15.2,35.5,15.3 M35.5,15.3
	C35.5,15.3,35.5,15.3,35.5,15.3C35.5,15.3,35.5,15.3,35.5,15.3 M36.5,24.4c0.5,1.1,0.9,2.3,1.4,3.4c-0.3-0.5-0.6-1.1-0.8-1.6
	c-0.2-0.6-0.5-1.1-0.7-1.7c-0.5-1.1-0.9-2.3-1.4-3.4C35.5,22.2,36,23.3,36.5,24.4 M35.2,25.4c0.3,0.6,0.5,1.2,0.8,1.8
	c0.3,0.6,0.5,1.2,0.8,1.8c-0.9-1.6-1.9-3.2-2.8-4.8c-0.2-0.3-0.3-0.5-0.5-0.8c-0.2-0.3-0.3-0.6-0.4-0.9c-1-2.4-2-4.7-2.9-7.2
	c0,0,0,0.1,0.1,0.1c0.5,1.1,1.1,2.2,1.6,3.3c0.6,1.1,1.1,2.3,1.7,3.4C34.1,23.1,34.7,24.2,35.2,25.4 M29.6,2.1
	c0.3,0.8,0.7,1.7,1,2.5c0.1,0.1,0.1,0.2,0.2,0.4c-0.3-1-0.7-2-1-2.9l0.1,0c0.9,2.1,1.9,4.2,2.8,6.4c-0.1,0.1-0.3,0.1-0.4,0.2
	c-0.4-0.8-0.7-1.6-1-2.4c-0.1-0.3-0.2-0.5-0.3-0.8c-0.2-0.5-0.5-1-0.7-1.6C29.9,3.3,29.7,2.7,29.6,2.1L29.6,2.1z M29.3,2.2L29.3,2.2
	c0.9,2,1.7,4,2.6,6c0,0.1,0.1,0.2,0.1,0.3c0,0,0,0.1,0,0c0,0,0,0,0,0c0,0,0,0-0.1,0c0-0.1-0.1-0.2-0.1-0.3C31,6.2,30.1,4.2,29.3,2.2
	 M27.7,14.4c0,0,0.1,0.1,0.1,0.2c0.2,0.4,0.4,0.8,0.6,1.2c0.2,0.5,0.4,1,0.6,1.5C28.5,16.4,28.1,15.4,27.7,14.4 M28.5,16
	C28.5,15.9,28.5,15.9,28.5,16c0.6,1,1.1,2,1.7,3.1c0.1,0.2,0.2,0.3,0.3,0.5c1.8,4.2,3.5,8.5,5.4,12.6c0.2,0.3,0.3,0.7,0.5,1
	c0,0,0,0,0,0c0,0-0.1,0-0.1-0.1C33.6,27.5,31,21.7,28.5,16 M29.9,35c0.3,0.1,0.6,0.2,0.9,0.4c1.7,0.8,3.5,1.6,5.2,2.4l-1.5,1
	c-0.2-0.1-0.3-0.2-0.5-0.2c-0.6-0.3-1.2-0.6-1.8-0.8c-0.4-0.2-0.8-0.4-1.2-0.5c-1.2-0.5-2.5-1.1-3.6-1.7c-0.3,0-0.6,0-0.8-0.1
	c-0.7-0.3-1.4-0.6-2-1c-0.1,0-0.1-0.1-0.2-0.1c-0.6-0.3-1.2-0.6-1.8-0.9C22.2,33.2,22,33,21.8,33c0,0,0,0,0,0
	c2.5,0.5,4.9,1.1,7.2,1.7C29.3,34.8,29.6,34.9,29.9,35 M35.5,40.3c-0.2-0.1-0.4-0.2-0.6-0.2c-0.2-0.1-0.3-0.1-0.5-0.2
	c0,0,0.1,0,0.1,0C34.8,39.9,35.2,40.1,35.5,40.3 M24,30.8c0.1,0,0.2,0.1,0.2,0.1c0.1,0,0.2,0.1,0.2,0.1c0,0,0.1,0.1,0.2,0.1
	c0.1,0.1,0.3,0.3,0.5,0.4c-0.5-0.2-1-0.4-1.5-0.7C23.7,30.8,23.8,30.8,24,30.8 M19.4,30.2c0.4,0.2,0.8,0.4,1.2,0.6
	c1.2,0.5,2.5,1.1,3.7,1.7c-2-0.4-4.1-0.8-6.2-1.2c-0.1,0-0.3,0-0.4-0.1c-0.1,0-0.1-0.1-0.2-0.1l4.4,0.3c0,0-2.3-1.1-5-2.2
	c0.2,0.1,0.4,0.1,0.6,0.2c0.2,0.1,0.5,0.1,0.7,0.2C18.6,29.8,19,30,19.4,30.2 M14.7,26.6c1.1,0.4,2.2,0.8,3.3,1.2
	c-0.1,0-0.3-0.1-0.5-0.1c-0.5-0.1-0.9-0.3-1.4-0.4c0,0,0,0,0,0c-0.2,0-0.2-0.1-0.4-0.1c-0.2,0-0.4,0-0.5-0.1c-0.1,0-0.3-0.1-0.4-0.2
	c-0.1,0-0.2-0.1-0.2-0.1c-0.2-0.1-0.4-0.2-0.6-0.3c-0.2-0.1-0.3-0.1-0.4-0.2C13.9,26.3,14.3,26.5,14.7,26.6 M21.7,34.8
	c0.4,0.2,0.8,0.4,1.1,0.6c-0.8-0.3-1.5-0.6-2.3-1c-2.3-1-4.6-2-6.9-2.9c0.2,0,0.3,0,0.4,0.1c0,0,0,0,0,0l1.6,0.3
	c0.3,0.1,0.6,0.3,0.9,0.4c0.2,0.1,0.5,0.1,0.7,0.1c0.2,0,0.5,0,0.7,0.1l1.8,1.2l0.2,0.1c0,0,0,0,0,0v0l3.8,1.6l4.2,1.9
	c-2.1-0.9-4.3-1.7-6.4-2.6C21.6,34.7,21.7,34.8,21.7,34.8 M24.3,41.7c0.2,0,0.3,0.1,0.5,0.1c0.4,0.1,0.9,0.3,1.4,0.4c0,0,0,0,0,0
	c-0.3-0.1-0.6-0.2-0.9-0.2C24.9,41.9,24.6,41.8,24.3,41.7 M25.3,42.1c2.4,0.7,4.7,1.4,7.1,2c0,0,0,0,0,0c-0.1,0.1-0.2,0.2-0.3,0.3
	C29.8,43.7,27.5,42.9,25.3,42.1C25.3,42.1,25.3,42.1,25.3,42.1 M27.7,45.5c0.8,0.2,1.6,0.5,2.4,0.7c0,0.1-0.1,0.1-0.1,0.1
	C29.2,46,28.4,45.7,27.7,45.5 M31.7,47.5c-2.8,2.2-5.5,4.5-8.3,6.7c0,0,0,0,0,0c0.9-0.9,1.8-1.8,2.8-2.6c0.2-0.1,0.3-0.3,0.5-0.4
	c0.2-0.1,0.3-0.3,0.5-0.4c0.6-0.6,1.2-1.2,1.8-1.8c0.5-0.4,0.9-0.9,1.4-1.3c0.2-0.1,0.3-0.3,0.5-0.4C31,47.2,31.3,47.3,31.7,47.5
	C31.7,47.4,31.7,47.5,31.7,47.5 M32.2,47c-0.3-0.1-0.7-0.2-1.1-0.4c0-0.1,0.1-0.1,0.2-0.2c0.4,0.1,0.8,0.2,1.2,0.3
	C32.4,46.9,32.3,47,32.2,47 M31.4,41.3c-3.1-1-6.3-2-9.4-3c4.2,1.3,8.4,2.5,12.5,3.8c-0.1,0.1-0.1,0.1-0.2,0.1
	c-0.2,0-0.4-0.1-0.6-0.2C33,41.8,32.2,41.5,31.4,41.3 M33.1,44.8C33.1,44.8,33.2,44.8,33.1,44.8c0.2-0.2,0.3-0.3,0.4-0.4
	c0,0,0,0,0,0c0.5,0.1,0.9,0.3,1.4,0.4c-0.2,0.1-0.3,0.3-0.5,0.4C33.9,45.1,33.5,45,33.1,44.8 M33.7,47.6c0.1-0.1,0.2-0.2,0.4-0.3
	c0.2,0,0.3,0.1,0.5,0.1c-0.1,0.1-0.2,0.2-0.3,0.3C34.1,47.7,33.9,47.6,33.7,47.6 M17.4,72.8c0.8-0.7,1.7-1.4,2.6-2.2
	c2.9-2.5,5.8-5.1,8.7-7.6c-0.2,0.3-0.5,0.7-0.7,1.1c0,0.1-0.1,0.1-0.1,0.2c-0.1,0.1-0.1,0.1-0.2,0.2c-1,0.8-2.1,1.7-3.1,2.6
	c0.2-0.1,0.3-0.2,0.5-0.3c-0.6,0.6-1.3,1.1-2,1.6c-2,1.6-4,3.2-6,4.8C17.1,73,17.3,72.9,17.4,72.8 M18.7,72.1
	c-0.9,0.7-1.8,1.5-2.6,2.2c0,0-0.1,0-0.1,0.1c0,0,0-0.1,0-0.2c0,0,0.1-0.1,0.1-0.1c0.1-0.1,0.1-0.1,0.2-0.1c0.1,0,0.1-0.1,0.2-0.1
	c0.9-0.7,1.8-1.4,2.6-2.1C19,71.8,18.8,71.9,18.7,72.1 M19.1,71.7C19.1,71.7,19.2,71.7,19.1,71.7 M24.9,67.4
	c-0.7,0.6-1.4,1.2-2.2,1.8c-1,0.8-1.9,1.6-2.9,2.4c0.1-0.1,0.2-0.2,0.4-0.3c0.4-0.3,0.7-0.6,1.1-0.9c0.5-0.4,1-0.8,1.4-1.2
	c0.5-0.4,0.9-0.8,1.4-1.2c0.5-0.4,1-0.8,1.5-1.2C25.4,67,25.1,67.2,24.9,67.4 M24.8,67.3c0,0,0.1-0.1,0.1-0.1c0.3-0.3,0.7-0.6,1-0.9
	c0.4-0.3,0.7-0.6,1.1-0.9c0,0.1-0.1,0.1-0.2,0.2C26.2,66.1,25.5,66.7,24.8,67.3 M26.8,67.8c0.1-0.2,0.3-0.4,0.4-0.6
	c0-0.1,0.1-0.2,0.1-0.2c0.1-0.1,0.1-0.1,0.2-0.1c0.4-0.3,0.9-0.7,1.3-1C28.2,66.5,27.4,67.1,26.8,67.8 M28.3,55.8
	c-0.1,0-0.2,0.2-0.2,0.2C28.1,56,28.2,55.9,28.3,55.8c0.2-0.2,0.4-0.5,0.7-0.8c0.1-0.2,0.3-0.3,0.5-0.5c0.6-0.6,1.2-1.2,1.8-1.8
	c0.7-0.8,1.5-1.5,2.2-2.3c0.1-0.2,0.3-0.3,0.4-0.5c0.1-0.2,0.3-0.3,0.4-0.5c0.2-0.2,0.4-0.5,0.7-0.7c0.1-0.1,0.1-0.2,0.2-0.2
	c0,0,0.1,0,0.1,0c-0.4,0.5-0.9,0.9-1.3,1.4c0.5-0.5,0.9-0.9,1.4-1.4c0.1,0,0.2,0.1,0.3,0.1c-0.5,0.5-1,1-1.4,1.5
	c0,0-0.1,0.1-0.1,0.1c0,0-0.1,0.1-0.1,0.1c-0.1,0.1-0.1,0.1-0.2,0.2C32.1,52.4,30.2,54.1,28.3,55.8 M36.4,45.4
	c-0.1,0.1-0.3,0.3-0.4,0.5c-0.1,0-0.1,0-0.1,0C36.1,45.6,36.3,45.5,36.4,45.4C36.5,45.3,36.5,45.3,36.4,45.4
	C36.5,45.3,36.5,45.4,36.4,45.4 M36.5,48c0,0,0,0.1-0.1,0.1c-0.1,0.1-0.2,0.2-0.3,0.3c-0.1,0-0.2-0.1-0.3-0.1c0,0,0,0,0,0
	c0.1-0.1,0.2-0.2,0.3-0.3C36.3,47.9,36.4,48,36.5,48 M35.9,47.8C36,47.8,36,47.8,35.9,47.8c0,0.2-0.1,0.3-0.2,0.4c0,0-0.1,0-0.1,0
	c0,0,0-0.1,0.1-0.1C35.8,48,35.9,47.9,35.9,47.8 M32.7,60.2c-0.1,0.1-0.2,0.2-0.3,0.3c-0.3,0.3-0.6,0.5-1,0.8
	c0.1-0.1,0.1-0.2,0.2-0.3c0,0,0-0.1,0.1-0.1c0.1-0.1,0.2-0.1,0.2-0.2C32.2,60.5,32.5,60.3,32.7,60.2 M36.5,57.7
	c-1.9,1.5-3.8,3-5.8,4.6c0.1-0.2,0.3-0.4,0.5-0.6c0.6-0.5,1.3-1.1,1.9-1.7c0.2-0.2,0.5-0.4,0.7-0.6c1-0.7,2.1-1.4,3.1-2.1
	C36.7,57.5,36.6,57.6,36.5,57.7 M37.2,43c-0.5-0.2-1-0.3-1.6-0.5c0,0,0-0.1,0.1-0.1C36.2,42.6,36.7,42.8,37.2,43
	C37.2,43,37.2,43,37.2,43 M37.2,39.7c0,0-0.1,0-0.2-0.1c-0.4-0.1-0.9-0.3-1.3-0.5c0.5-0.2,1-0.4,1.4-0.6c0.1,0.3,0.3,0.6,0.4,0.9
	c0,0.1-0.1,0.1-0.1,0.2C37.3,39.7,37.3,39.7,37.2,39.7 M37.3,55.8C37.2,55.8,37.3,55.8,37.3,55.8c0.2-0.2,0.4-0.3,0.5-0.5
	c0.5-0.4,1-0.8,1.5-1.2c-0.1,0.1-0.2,0.2-0.3,0.3c1.3-1.1,2.6-2.2,3.8-3.2c0.2,0.1,0.4,0.1,0.5,0.2C41.4,52.9,39.3,54.3,37.3,55.8
	 M44.4,50.5c-0.2,0.2-0.4,0.4-0.6,0.5c-0.2-0.1-0.4-0.1-0.5-0.2c0.2-0.2,0.5-0.4,0.7-0.6C44.1,50.3,44.3,50.3,44.4,50.5
	C44.5,50.4,44.4,50.4,44.4,50.5 M44,27.4c0-0.1-0.1-0.1-0.1-0.2c0-0.1,0-0.2,0-0.2c0-0.1,0-0.2,0-0.3c0.4,0.9,0.9,1.8,1.3,2.8
	c0,0.3,0,0.6,0.1,1C44.9,29.5,44.5,28.5,44,27.4 M48.8,56.2c0,0.3,0,0.7,0,1c-0.5-1-1-2-1.5-3c0.1,0.1,0.1,0.2,0.2,0.2
	C48,55,48.4,55.6,48.8,56.2 M47.4,51.3c0.1,0.2,0.1,0.3,0.2,0.5c-0.1-0.2-0.3-0.4-0.4-0.6C47.2,51.3,47.3,51.3,47.4,51.3 M46.4,28.9
	c0.2,0.3,0.3,0.6,0.4,0.9c0,0.1,0,0.2,0,0.3c-0.2-0.3-0.3-0.7-0.5-1C46.4,29,46.4,29,46.4,28.9 M46.6,30.9c0-0.1-0.1-0.2-0.1-0.3
	c0-0.1,0-0.2,0-0.3c0-0.3,0-0.6,0-0.9c0.1,0.2,0.2,0.5,0.3,0.7c0,0.1,0.1,0.2,0.1,0.3c0,0.1,0,0.3,0,0.5c0,0.1,0,0.1,0,0.1
	c0,0.1-0.1,0.1-0.2,0.2C46.7,31.1,46.6,31,46.6,30.9 M46.7,53.4c0,0,0.1,0.1,0.1,0.1c0,0,0.1,0.1,0.1,0.1c0,0,0,0.1,0.1,0.2
	c0.1,0.1,0.1,0.3,0.2,0.5C47,54,46.9,53.7,46.7,53.4 M48,59.4c-0.1-0.2-0.4-0.9-0.7-1.8c-0.1-0.3-0.1-0.6-0.2-0.9
	c0.5,1,1,2.1,1.6,3.1c0.1,0.1,0.2,0.3,0.2,0.4c0,0,0,0,0,0c0,0.1,0,0.3,0,0.5c0,0.2,0,0.4,0,0.6C48.6,60.5,48.2,59.7,48,59.4
	 M60.8,72.3c0.2,0.2,0.3,0.5,0.5,0.7c0.4,0.6,0.9,1.2,1.3,1.8c0.2,0.3,0.4,0.6,0.6,1c0,0-0.1-0.1-0.1-0.1c-0.5-0.5-0.9-1-1.3-1.6
	c-0.4-0.6-0.8-1.3-1.2-2C60.7,72.1,60.7,72.2,60.8,72.3 M54.7,48.1c0.8,0.2,1.5,0.4,2.3,0.6l-0.1,0.1C56.2,48.6,55.4,48.3,54.7,48.1
	 M55.9,51.8c-0.3-0.1-0.6-0.2-0.9-0.3c-0.1-0.3-0.3-0.5-0.4-0.8c0.3,0.1,0.6,0.2,1,0.3C55.6,51.3,55.7,51.5,55.9,51.8 M56,46.9
	C56,46.9,56,46.9,56,46.9c-0.7-0.2-1.5-0.4-2.2-0.7c-0.1-0.1-0.1-0.3-0.2-0.4c0.1,0,0.2,0.1,0.3,0.1C54.6,46.3,55.3,46.6,56,46.9
	 M54.5,43.2c-0.2,0.2-0.4,0.4-0.6,0.5c-0.5-0.3-1.1-0.5-1.6-0.8c-0.2-0.4-0.4-0.8-0.5-1.2c0.1-0.1,0.2-0.2,0.3-0.3
	c1,0.4,2,0.8,3.1,1.1C54.9,42.8,54.7,43,54.5,43.2 M53.1,46c-0.2-0.1-0.4-0.1-0.7-0.2c0.1-0.1,0.2-0.2,0.4-0.3c0,0,0,0,0.1,0
	C52.9,45.7,53,45.8,53.1,46 M52.2,45.2c-0.1,0.1-0.2,0.2-0.2,0.2c0,0,0,0.1-0.1,0.1c-0.1-0.2-0.2-0.3-0.2-0.5
	C51.9,45,52,45.1,52.2,45.2 M56,41.8c-1-0.4-2.1-0.7-3.1-1.1c0,0,0,0,0-0.1c0,0,0.1-0.1,0.1-0.1c1,0.4,2,0.8,3.1,1.1
	C56.1,41.7,56.1,41.8,56,41.8 M59.9,42.8c2.2,0.8,6.3,2.2,8.6,2.9c0.1,0,0.1,0.1,0.2,0.1c0.1,0,0.2,0,0.2,0.1c-0.1,0.1-0.2,0-0.3,0
	c-0.1,0-0.1-0.1-0.2-0.1C66.2,45.1,62.1,43.7,59.9,42.8C59.9,42.9,59.9,42.8,59.9,42.8 M67.7,45.8c0.1,0,0.2,0.1,0.2,0.1
	c0.2,0.1,0.5,0.2,0.7,0.3c0.1,0,0.1,0,0.1,0.1C68,46,65.2,45,64.3,44.7c-2.6-0.9-5.1-1.8-7.7-2.7c0,0,0.1-0.1,0.1-0.1
	C59.7,43,64.7,44.7,67.7,45.8 M74.7,26.3c-0.2,0.1-0.4,0.3-0.5,0.4c-1.3,1-2.6,2-3.9,3c-2.9,2.3-5.7,4.7-8.6,7.2
	c-1.4,1.2-2.7,2.4-4.1,3.5c0,0-0.1,0.1-0.1,0.1c-1-0.4-2.1-0.7-3.1-1.1c0,0,0-0.1,0-0.1c0.1-0.1,0.3-0.3,0.5-0.4
	c0.5-0.5,1.1-1,1.7-1.5c0.4-0.3,0.7-0.6,1.1-1c0.2-0.2,0.4-0.3,0.6-0.5c1-0.8,1.9-1.6,2.9-2.3c0.2-0.2,0.4-0.3,0.7-0.4
	C65.9,30.8,70.3,28.6,74.7,26.3 M76.2,24.2c-1.4,0.8-2.9,1.5-4.4,2.3c-0.2,0.1-0.4,0.2-0.6,0.3c-1.2,0.7-2.5,1.3-3.7,2
	c0.1-0.1,0.2-0.1,0.2-0.2c1.2-0.9,2.6-1.6,4-2.3c0.4-0.2,0.7-0.4,1.1-0.6c0.4-0.2,0.8-0.4,1.1-0.5C74.6,24.8,75.4,24.5,76.2,24.2
	C76.2,24.2,76.2,24.2,76.2,24.2 M79.1,19.4c0.1,0,0.2-0.1,0.4-0.1c0.3,0,0.5,0,0.8,0c0.1,0,0.1,0,0.2,0c0.1,0,0.1,0,0.2,0
	c0.1,0,0.2,0.1,0.3,0.2c0.2,0.2,0.3,0.3,0.4,0.5c0.1,0.1,0.1,0.2,0.2,0.4c0,0.2,0,0.3,0,0.5c-0.2,0.9-0.9,1.2-1.5,1.6
	c-0.1,0-0.1,0.1-0.2,0.1c-0.1,0-0.1,0.1-0.2,0.1c-0.1,0.1-0.2,0.1-0.3,0.2c-0.1,0-0.2-0.1-0.3,0c0.1,0,0.3-0.2,0.4-0.2
	c0.6-0.3,1.1-0.7,1.6-1.1c0.2-0.2,0.3-0.5,0.3-0.9c0-0.4-0.2-0.7-0.5-0.9c-0.1-0.1-0.2-0.2-0.2-0.2c-0.1-0.1-0.3-0.1-0.4-0.2
	c-0.4-0.1-0.8,0-1.2,0.1c-0.7,0.1-1.4,0.3-2.1,0.6c-0.9,0.3-1.8,0.6-2.7,0.9C75.7,20.3,77.4,19.8,79.1,19.4 M71.8,24.1
	c0,0,0.2-0.2,0.2-0.2c0,0-0.1-0.1-0.1-0.2c0.6-0.4,1.1-0.7,1.7-1c0.6-0.3,1.3-0.5,2-0.7c1-0.4,2-0.7,3.1-1c0.2-0.1,0.5-0.1,0.7-0.2
	c0.1,0,0.2,0,0.4,0c0,0,0,0,0,0c-0.2,0.2-0.5,0.3-0.8,0.5c-0.6,0.3-1.2,0.6-1.8,0.9c-0.3,0.1-0.6,0.3-1,0.4c-0.3,0.1-0.6,0.3-1,0.4
	c-0.9,0.4-2.7,1.2-2.8,1.3c-0.7,0.3-1.4,0.7-2,1.1c0.2-0.2,0.5-0.5,0.8-0.8C71.3,24.5,71.5,24.3,71.8,24.1 M52.4,36.1
	c0.2-0.2,0.5-0.4,0.7-0.6c1-0.8,1.9-1.7,2.9-2.5c0.2-0.2,0.5-0.4,0.7-0.6c0.7-0.6,1.4-1.3,2.1-1.9c1.9-1.7,3.7-3.4,5.7-5.1
	c1-0.9,1.9-1.7,2.8-2.5c1.4-1.2,2.9-2.5,4.3-3.7c0.5-0.4,1-0.8,1.6-1.2c-0.8,1.4-2,2.5-3.2,3.5c-0.2,0.2-0.5,0.4-0.7,0.6
	c-0.9,0.8-1.8,1.6-2.7,2.3c0,0-0.1,0-0.1,0.1c-0.5,0.4-1,0.9-1.5,1.3c-1,0.8-2,1.6-2.9,2.5c-0.9,0.8-1.9,1.7-2.9,2.5
	c-0.5,0.4-1,0.8-1.4,1.2c-0.9,0.8-1.9,1.7-2.9,2.5c-1.4,1.2-2.9,2.4-4.4,3.7c-0.1,0-0.3-0.1-0.3-0.1c0,0,0,0,0,0
	c0,0,0.1-0.1,0.1-0.1C51.1,37.3,51.8,36.7,52.4,36.1 M51.5,42.6c-0.2-0.1-0.3-0.1-0.5-0.2c0.1-0.1,0.2-0.1,0.2-0.2c0,0,0,0,0,0
	C51.3,42.3,51.4,42.4,51.5,42.6 M52.4,33.9c-0.7,0.7-1.4,1.4-2.1,2.1c0,0,0,0-0.1,0.1c0,0,0,0.1-0.1,0c0,0,0-0.1,0-0.1
	c0,0,0.1-0.1,0.1-0.1c1.5-1.4,2.9-2.9,4.4-4.3C53.9,32.4,53.2,33.2,52.4,33.9 M49.4,30.6c0-0.1,0-0.2,0-0.3c0-0.1,0.1-0.1,0.2-0.2
	c0.2-0.2,0.4-0.4,0.6-0.5c0.8-0.7,1.6-1.4,2.5-2.2c0.3-0.2,0.6-0.5,0.8-0.7c0.1-0.1,0.3-0.2,0.4-0.4c0.7-0.6,1.4-1.2,2-1.8
	c-1.1,1.1-2.2,2.3-3.3,3.5c-0.8,0.9-1.6,1.7-2.4,2.6c-0.3,0.3-0.5,0.6-0.8,0.9C49.4,31.2,49.4,30.8,49.4,30.6 M49.4,34.4
	c0-0.1,0.2-0.2,0.3-0.3c0.7-0.7,1.4-1.5,2.1-2.3c0.3-0.3,0.6-0.7,0.9-1c0.5-0.5,1-1.1,1.5-1.6c0.7-0.8,1.4-1.5,2.1-2.3
	c0.1-0.1,0.2-0.2,0.3-0.3c0.8-0.9,1.7-1.7,2.5-2.5c0.4-0.4,0.9-0.8,1.3-1.2c1.3-1.3,2.6-2.5,3.8-3.7c0.2-0.2,0.4-0.4,0.7-0.6
	c0.6-0.6,1.3-1.2,2-1.8c0.5-0.4,0.9-0.8,1.4-1.2c0.5-0.4,0.9-0.8,1.4-1.1c0,0,0,0,0,0c-2.5,2.6-5,5.1-7.5,7.7
	c-0.6,0.6-1.3,1.3-1.9,1.9c-0.1,0.1-0.2,0.2-0.3,0.3c-0.1,0.1-0.1,0.1-0.1,0.2c-3,3-6,6-9,9c-0.3,0.3-0.6,0.6-1,0.9
	c-0.1,0.1-0.2,0.2-0.2,0.2c0,0,0,0.1-0.1,0.1C49.6,34.7,49.5,34.6,49.4,34.4C49.4,34.5,49.4,34.4,49.4,34.4 M50.1,52.3l0.7,1.1
	c-0.2-0.1-0.5-0.2-0.7-0.2C50.1,52.9,50.1,52.6,50.1,52.3 M54,67.2C54,67.2,53.9,67.1,54,67.2c-0.3-0.6-0.6-1.2-0.9-1.8
	c-0.3-0.6-0.6-1.2-0.9-1.8c-0.6-1.2-1.2-2.4-1.9-3.6c0-0.6,0-1.3,0-1.9C51.5,61.1,52.8,64.1,54,67.2 M55.5,62.7
	c-0.4-0.5-0.8-1.1-1.2-1.6c-1.1-1.6-2.3-3.2-3.5-4.7c-0.1-0.1-0.2-0.3-0.2-0.5c-0.1-0.3-0.3-0.7-0.4-1.1c0-0.1-0.1-0.1-0.1-0.2
	c0-0.1,0-0.3,0-0.5c0-0.2,0-0.3,0-0.4c0.4,0.1,0.7,0.2,1.1,0.4l3.3,4.7C54.9,60,55.2,61.4,55.5,62.7C55.6,62.7,55.6,62.7,55.5,62.7
	C55.6,62.7,55.5,62.7,55.5,62.7 M55.2,52.1C55.2,52.1,55.2,52.1,55.2,52.1C55.2,52,55.2,52.1,55.2,52.1c0.2,0,0.5,0.1,0.7,0.1
	c0.1,0,0.2,0,0.2,0.1C55.8,52.3,55.5,52.2,55.2,52.1 M60.2,68.6c-0.9-1.1-1.7-2.2-2.6-3.3c-0.1-0.1-0.1-0.2-0.2-0.2
	c0-0.1-0.1-0.2-0.1-0.3c-0.4-1-0.7-2-1.1-3L60.2,68.6z M57.8,55.8c-0.3-0.1-0.6-0.2-0.9-0.3c-0.2-0.4-0.4-0.8-0.6-1.2
	c0.3,0.1,0.6,0.2,0.9,0.3C57.4,55,57.6,55.4,57.8,55.8 M80.1,58.2c0.1-0.1,0.1-0.1,0.2-0.1c0,0.1,0,0.3,0,0.5c0,0.2-0.1,0.3-0.2,0.4
	c-0.1,0-0.3,0-0.4-0.1c-1.8-0.5-3.7-1-5.5-1.5c-1.5-0.4-2.9-0.8-4.4-1.2c-3.9-1.1-7.8-2.2-11.6-3.3c-0.4-0.1-0.8-0.2-1.2-0.3
	c0,0,0,0,0,0c-0.1,0-0.2,0-0.2-0.2c0,0,0,0,0,0c0.5,0.1,1,0.3,1.4,0.4c1.4,0.4,2.9,0.8,4.3,1.2c1.9,0.5,3.9,1,5.8,1.5
	c1.9,0.5,3.9,1,5.8,1.5c0.5,0.1,0.9,0.3,1.4,0.4c0.7,0.2,1.4,0.4,2.2,0.6c0.2,0.1,0.5,0.1,0.7,0.2c0.5,0.1,0.9,0.3,1.4,0.5
	c0.1,0,0.1-0.1,0.1-0.2c0-0.1-0.1-0.1-0.2-0.2C79.8,58.3,79.9,58.3,80.1,58.2 M79.5,58.3C79.5,58.3,79.6,58.3,79.5,58.3
	C79.6,58.3,79.6,58.3,79.5,58.3C79.6,58.3,79.5,58.3,79.5,58.3C79.5,58.3,79.5,58.3,79.5,58.3 M76.5,57.4c0.2,0,0.3,0.1,0.4,0.1
	c0.8,0.3,1.7,0.5,2.6,0.8c-0.1,0-0.3,0-0.4-0.1c-0.1,0-0.2-0.1-0.3-0.1c-0.7-0.2-1.4-0.5-2.1-0.7c0.2,0.1,0.4,0.1,0.6,0.2
	c-0.2,0-0.4-0.1-0.5-0.1c-1.2-0.4-2.5-0.8-3.7-1.2c-1.4-0.5-2.8-0.9-4.3-1.3C71.3,55.8,73.9,56.6,76.5,57.4 M61.9,52.9
	c0.2,0.1,0.4,0.1,0.5,0.2c0.9,0.3,1.9,0.6,2.8,0.9c3,0.9,6,1.9,9,2.8c-5.9-1.6-11.9-3.3-17.8-4.9c-0.1,0-0.1-0.1-0.1-0.2
	c-0.1-0.2-0.2-0.4-0.3-0.5c0.8,0.2,1.5,0.4,2.3,0.7C59.6,52.3,60.7,52.6,61.9,52.9 M64.5,49.1c0-0.1-0.1-0.3-0.2-0.4
	c4.3-0.1,11.5-0.3,13-0.2C78.8,48.7,69.6,49,64.5,49.1"/>
<path fill="#FFFFFF" d="M112.7,33.4c4.4,1.3,7.3,3.4,7.3,8c0,5.5-5.1,9-10.4,9c-4.6,0-9-1.9-11.6-5.3l3.3-3.9c2.5,3,5.3,4.3,8.4,4.3
	c2.6,0,4.8-1.2,4.8-3.6c0-1.9-1-2.8-3.4-3.5l-4.9-1.5c-4.1-1.2-6.8-3.3-6.8-7.7c0-4.7,4.2-8.6,10-8.6c4.3,0,7.8,1.6,10.2,4.1
	l-3.1,4.1c-2-2.1-4.3-3.3-7.1-3.3c-2.6,0-4.4,1.4-4.4,3.3c0,1.7,1.1,2.5,3.1,3.1L112.7,33.4z"/>
<path fill="#FFFFFF" d="M128.4,33.7L128.4,33.7c1-1.6,3.1-3,5.8-3c5.1,0,9.1,4.1,9.1,9.9c0,5.8-4,9.9-9.1,9.9c-2.7,0-4.8-1.5-5.7-3
	h-0.1v10h-5.3V31.1h5.3V33.7z M133.2,45.8c3,0,4.9-2.5,4.9-5.2c0-2.8-2-5.2-4.9-5.2c-3,0-4.9,2.5-4.9,5.2
	C128.3,43.3,130.2,45.8,133.2,45.8"/>
<path fill="#FFFFFF" d="M153.1,38.7l4.4-0.4c0-1.9-1.3-3.1-4-3.1c-2,0-4.1,0.9-5.5,1.9l-1.8-3.9c1.7-1.2,4.9-2.6,8.2-2.6
	c5.3,0,8.2,3.1,8.2,7.9V50h-5.1v-2.4h-0.1c-0.6,1.2-2.8,2.9-5.5,2.9c-3.7,0-6.6-2.1-6.6-5.8C145.4,40.9,149.2,39,153.1,38.7
	 M157.6,41.8l-3.5,0.3c-2.3,0.2-3.7,0.8-3.7,2.4c0,1.3,1.3,2.1,2.9,2.1c2.4,0,4.4-1.5,4.4-4.2V41.8z"/>
<path fill="#FFFFFF" d="M171.9,40.4V50h-5.3V31.1h5.3v3.2h0.1c0.7-2,2.7-3.5,4.8-3.5c0.4,0,0.9,0,1.3,0.1v5.4
	c-0.6-0.2-1.3-0.4-2-0.4C173.6,36,171.9,37.7,171.9,40.4"/>
<polygon fill="#FFFFFF" points="186.5,40.3 186.5,50 181.3,50 181.3,21.3 186.5,21.3 186.5,39.4 193.9,31.1 200,31.1 192.1,39.8 
	200.2,50 193.9,50 "/>
<path fill="#FFFFFF" d="M212.3,39.7h7.4V38h-4.9l4.6-4.9v-1.9h-7v1.7h4.4l-4.6,5V39.7z M203.1,39.7h2.1V35c0-0.3,0-0.6,0.1-0.8
	c0.1-0.3,0.2-0.5,0.4-0.7c0.2-0.2,0.4-0.4,0.6-0.5c0.2-0.1,0.5-0.2,0.9-0.2c0.3,0,0.6,0.1,0.8,0.2c0.2,0.1,0.4,0.3,0.5,0.5
	c0.1,0.2,0.2,0.5,0.2,0.7c0,0.3,0.1,0.5,0.1,0.8v4.8h2.1v-5.4c0-0.4-0.1-0.9-0.2-1.3c-0.1-0.4-0.3-0.8-0.6-1.1
	c-0.3-0.3-0.6-0.6-1-0.8c-0.4-0.2-0.9-0.3-1.4-0.3c-0.6,0-1.2,0.2-1.7,0.5c-0.5,0.3-0.8,0.7-1,1.1h0v-1.4h-2V39.7z"/>
</svg>
