<svg xmlns="http://www.w3.org/2000/svg" viewBox="0 0 280 100" role="img" aria-label="seek">
  <title>seek</title>
  <circle cx="50" cy="50" r="50" fill="#FFFFFF" />
  <g>
    <circle cx="21" cy="42.4" r="2.5" fill="#1F3C88" />
    <circle cx="21" cy="50.0" r="2.5" fill="#1F3C88" />
    <circle cx="21" cy="57.6" r="2.5" fill="#1F3C88" />
    <circle cx="29" cy="42.4" r="2.7" fill="#1F3C88" />
    <circle cx="29" cy="50.0" r="2.7" fill="#1F3C88" />
    <circle cx="29" cy="57.6" r="2.7" fill="#1F3C88" />
    <circle cx="37" cy="42.4" r="2.9" fill="#1F3C88" />
    <circle cx="37" cy="50.0" r="2.9" fill="#1F3C88" />
    <circle cx="37" cy="57.6" r="2.9" fill="#1F3C88" />
    <circle cx="45" cy="27.2" r="3.1" fill="#1F3C88" />
    <circle cx="45" cy="34.8" r="3.1" fill="#1F3C88" />
    <circle cx="45" cy="42.4" r="3.1" fill="#1F3C88" />
    <circle cx="45" cy="50.0" r="3.1" fill="#1F3C88" />
    <circle cx="45" cy="57.6" r="3.1" fill="#1F3C88" />
    <circle cx="45" cy="65.2" r="3.1" fill="#1F3C88" />
    <circle cx="45" cy="72.8" r="3.1" fill="#1F3C88" />
    <circle cx="53" cy="34.8" r="3.5" fill="#1F3C88" />
    <circle cx="53" cy="42.4" r="3.5" fill="#1F3C88" />
    <circle cx="53" cy="50.0" r="3.5" fill="#1F3C88" />
    <circle cx="53" cy="57.6" r="3.5" fill="#1F3C88" />
    <circle cx="53" cy="65.2" r="3.5" fill="#1F3C88" />
    <circle cx="61" cy="42.4" r="3.9" fill="#1F3C88" />
    <circle cx="61" cy="50.0" r="3.9" fill="#1F3C88" />
    <circle cx="61" cy="57.6" r="3.9" fill="#1F3C88" />
    <circle cx="69" cy="50.0" r="4.4" fill="#1F3C88" />
  </g>
  <text x="118" y="72" font-family="Arial, Helvetica, sans-serif" font-size="68" font-weight="800" letter-spacing="-3" fill="#FFFFFF">seek</text>
</svg>
