<svg xmlns="http://www.w3.org/2000/svg" viewBox="0 0 100 100" role="img" aria-label="seek">
  <title>seek</title>
  <circle cx="50" cy="50" r="50" fill="#1F3C88" />
  <g>
    <circle cx="21" cy="42.4" r="2.5" fill="#FFFFFF" />
    <circle cx="21" cy="50.0" r="2.5" fill="#FFFFFF" />
    <circle cx="21" cy="57.6" r="2.5" fill="#FFFFFF" />
    <circle cx="29" cy="42.4" r="2.7" fill="#FFFFFF" />
    <circle cx="29" cy="50.0" r="2.7" fill="#FFFFFF" />
    <circle cx="29" cy="57.6" r="2.7" fill="#FFFFFF" />
    <circle cx="37" cy="42.4" r="2.9" fill="#FFFFFF" />
    <circle cx="37" cy="50.0" r="2.9" fill="#FFFFFF" />
    <circle cx="37" cy="57.6" r="2.9" fill="#FFFFFF" />
    <circle cx="45" cy="27.2" r="3.1" fill="#FFFFFF" />
    <circle cx="45" cy="34.8" r="3.1" fill="#FFFFFF" />
    <circle cx="45" cy="42.4" r="3.1" fill="#FFFFFF" />
    <circle cx="45" cy="50.0" r="3.1" fill="#FFFFFF" />
    <circle cx="45" cy="57.6" r="3.1" fill="#FFFFFF" />
    <circle cx="45" cy="65.2" r="3.1" fill="#FFFFFF" />
    <circle cx="45" cy="72.8" r="3.1" fill="#FFFFFF" />
    <circle cx="53" cy="34.8" r="3.5" fill="#FFFFFF" />
    <circle cx="53" cy="42.4" r="3.5" fill="#FFFFFF" />
    <circle cx="53" cy="50.0" r="3.5" fill="#FFFFFF" />
    <circle cx="53" cy="57.6" r="3.5" fill="#FFFFFF" />
    <circle cx="53" cy="65.2" r="3.5" fill="#FFFFFF" />
    <circle cx="61" cy="42.4" r="3.9" fill="#FFFFFF" />
    <circle cx="61" cy="50.0" r="3.9" fill="#FFFFFF" />
    <circle cx="61" cy="57.6" r="3.9" fill="#FFFFFF" />
    <circle cx="69" cy="50.0" r="4.4" fill="#FFFFFF" />
  </g>
</svg>
