<?xml version="1.0" encoding="UTF-8"?>
<svg xmlns="http://www.w3.org/2000/svg" xmlns:xlink="http://www.w3.org/1999/xlink" viewBox="0 0 37 37" role="img" aria-label="Changi Airport">
  <defs>
    <linearGradient id="cg-taupe" x1="2462.16" y1="-785.7" x2="2486.52" y2="-785.7" gradientTransform="translate(-2456.74 -769.84) scale(1 -1)" gradientUnits="userSpaceOnUse">
      <stop offset=".38" stop-color="#dcd3cd"/>
      <stop offset="1" stop-color="#7d6a55"/>
    </linearGradient>
    <linearGradient id="cg-color" x1="2480.69" y1="-795.75" x2="2456.2" y2="-795.75" gradientTransform="translate(-2456.74 -769.84) scale(1 -1)" gradientUnits="userSpaceOnUse">
      <stop offset="0" stop-color="#e1d200"/>
      <stop offset=".62" stop-color="#ee3424"/>
      <stop offset="1" stop-color="#6c217f"/>
    </linearGradient>
    <linearGradient id="cg-color-2" x1="2457.24" y1="-777.23" x2="2491.94" y2="-777.23" xlink:href="#cg-color"/>
    <linearGradient id="cg-taupe-2" x1="2461.4" y1="-783.4" x2="2491.04" y2="-783.4" xlink:href="#cg-taupe"/>
    <linearGradient id="cg-color-3" x1="2457.3" y1="-785.29" x2="2492.29" y2="-785.29" xlink:href="#cg-color"/>
  </defs>
  <path fill="url(#cg-taupe)" d="M5.8,4.91c.69-3.43,4.81-3.02,4.81-3.02h0c4.76.43,9.02,5.98,11.32,9.6,3.57,5.62,5.97,12.3,6.11,19.02,0,.13.1.14.19.1.15-.11.31-.22.46-.33h0c.19-.14.37-.29.56-.44.13-.11.25-.22.38-.32.08-.08.14-.21.14-.39-.19-7.27-2.42-14.56-6.97-20.3-2.25-2.84-6.36-6.8-10.49-7.6h0S7.73.18,5.42,4.12l.38.81"/>
  <path fill="url(#cg-color-2)" d="M.57,18.4c1.11,8.68,8.54,15.39,17.54,15.39,2.42,0,4.73-.49,6.83-1.36.26-.12.24-.19.11-.24-10.93.21-20.53-6.65-24.38-14.13-.11-.11-.13.11-.1.34h0Z"/>
  <path fill="url(#cg-color-3)" d="M35.17,11.51c-.02-.07-.04-.13-.05-.2-.09-.32-.44-1.2-.69-1.76C29.07-1.45,15.22-2.3,6.74,4.16l-.04.03s-2.15,1.55-3.64,3.64c-1.49,2.1-2.14,4.07-2.37,5.22-.17.83-.2,1.26-.17,1.46v.02c0,.08.03.12.07.14.1.07.36-.09.56-.2.14-.08.62-.32,1.04-.51,1.34-.58,2.85-1.06,4.42-1.39-.08-.13-.19-.26-.28-.4-.64-.96-1.13-2.07-1.41-3.13-1.11.72-2.18,1.58-3.17,2.59,4.29-9.73,23.64-16.23,33.25.09h0c.09.15.19.15.19.02,0-.05-.01-.15-.03-.22h0Z"/>
  <path fill="url(#cg-taupe-2)" d="M16.52,17.05c-2.9-1.67-5.96-3.4-8.22-5.92-1.55-1.73-2.82-4.13-2.47-6.46.24-.99,1.13-2.09,2.35-2.53h0c-.65.2-1.3.51-1.96.94-.1.09-.2.19-.3.28-2.05,2.55-1.41,6.1.39,8.8,2.14,3.21,5.82,5.79,9.12,7.66,3.52,1.99,7.33,3.52,11.27,4.46,1.85.45,3.51.54,5.41.67.28.02.56.03.84.04.28,0,.48-.13.59-.3.08-.14.23-.43.23-.43.06-.11.4-.83.51-1.06-6.31-.28-12.38-3.05-17.78-6.15h0Z"/>
  <path fill="url(#cg-color)" d="M35.77,15.97c-.02-.38-.31-1.06-.85-1.69C28.93,7.6,16.1,3.13,6.38,8.19c.46,1.08,1.15,2.09,1.91,2.94.32.36.69.73,1.01,1.02,9.29-1.01,20.57,2.39,24.04,12.75.1-.06.17-.13.22-.22,1.4-2.53,2.21-5.44,2.21-8.54,0-.06,0-.11,0-.17h0Z"/>
</svg>
