<svg width="24" height="23" viewBox="0 0 24 23" fill="none" xmlns="http://www.w3.org/2000/svg">
<g id="instagram 1" clip-path="url(#clip0_5349_21156)">
<g id="Group">
<path id="Vector" d="M16.5471 0H7.45287C3.75689 0 0.75 3.00689 0.75 6.70287V15.7971C0.75 19.4931 3.75689 22.5 7.45287 22.5H16.5471C20.2431 22.5 23.25 19.4931 23.25 15.7971V6.70287C23.25 3.00689 20.2431 0 16.5471 0ZM20.9865 15.7971C20.9865 18.2489 18.9989 20.2365 16.5471 20.2365H7.45287C5.00109 20.2365 3.0135 18.2489 3.0135 15.7971V6.70287C3.0135 4.25105 5.00109 2.2635 7.45287 2.2635H16.5471C18.9989 2.2635 20.9865 4.25105 20.9865 6.70287V15.7971Z" fill="white"/>
<path id="Vector_2" d="M11.999 5.42969C8.79022 5.42969 6.17969 8.04022 6.17969 11.2489C6.17969 14.4577 8.79022 17.0682 11.999 17.0682C15.2078 17.0682 17.8183 14.4577 17.8183 11.2489C17.8183 8.04018 15.2078 5.42969 11.999 5.42969ZM11.999 14.8048C10.0352 14.8048 8.44319 13.2128 8.44319 11.249C8.44319 9.28516 10.0352 7.69319 11.999 7.69319C13.9628 7.69319 15.5548 9.28516 15.5548 11.249C15.5548 13.2128 13.9628 14.8048 11.999 14.8048Z" fill="white"/>
<path id="Vector_3" d="M17.8319 6.86697C18.602 6.86697 19.2263 6.24267 19.2263 5.47255C19.2263 4.70243 18.602 4.07812 17.8319 4.07812C17.0618 4.07812 16.4375 4.70243 16.4375 5.47255C16.4375 6.24267 17.0618 6.86697 17.8319 6.86697Z" fill="white"/>
</g>
</g>
<defs>
<clipPath id="clip0_5349_21156">
<rect width="22.5" height="22.5" fill="white" transform="translate(0.75)"/>
</clipPath>
</defs>
</svg>
