<svg width="24" height="23" viewBox="0 0 24 23" fill="none" xmlns="http://www.w3.org/2000/svg">
<g id="linkedin (1) 1">
<g id="_x31_0.Linkedin">
<path id="Vector" d="M20.9997 20.2528V13.6603C20.9997 10.4203 20.3022 7.94531 16.5222 7.94531C14.6997 7.94531 13.4847 8.93531 12.9897 9.88031H12.9447V8.23781H9.36719V20.2528H13.1022V14.2903C13.1022 12.7153 13.3947 11.2078 15.3297 11.2078C17.2422 11.2078 17.2647 12.9853 17.2647 14.3803V20.2303H20.9997V20.2528Z" fill="white"/>
<path id="Vector_2" d="M3.29297 8.23438H7.02797V20.2494H3.29297V8.23438Z" fill="white"/>
<path id="Vector_3" d="M5.16 2.25C3.9675 2.25 3 3.2175 3 4.41C3 5.6025 3.9675 6.5925 5.16 6.5925C6.3525 6.5925 7.32 5.6025 7.32 4.41C7.32 3.2175 6.3525 2.25 5.16 2.25Z" fill="white"/>
</g>
</g>
</svg>
