<?xml version="1.0" encoding="UTF-8"?>
<svg id="Layer_1" data-name="Layer 1" xmlns="http://www.w3.org/2000/svg" xmlns:xlink="http://www.w3.org/1999/xlink" viewBox="0 0 138 37">
  <defs>
    <style>
      .cls-1 {
        fill: url(#linear-gradient);
      }

      .cls-1, .cls-2, .cls-3, .cls-4, .cls-5, .cls-6 {
        stroke-width: 0px;
      }

      .cls-2 {
        fill: url(#linear-gradient-4);
      }

      .cls-3 {
        fill: url(#linear-gradient-2);
      }

      .cls-4 {
        fill: url(#linear-gradient-3);
      }

      .cls-5 {
        fill: url(#linear-gradient-5);
      }

      .cls-6 {
        fill: #7d6a55;
      }
    </style>
    <linearGradient id="linear-gradient" x1="2462.16" y1="-785.7" x2="2486.52" y2="-785.7" gradientTransform="translate(-2456.74 -769.84) scale(1 -1)" gradientUnits="userSpaceOnUse">
      <stop offset=".38" stop-color="#dcd3cd"/>
      <stop offset="1" stop-color="#7d6a55"/>
    </linearGradient>
    <linearGradient id="linear-gradient-2" x1="2480.69" y1="-795.75" x2="2456.2" y2="-795.75" gradientTransform="translate(-2456.74 -769.84) scale(1 -1)" gradientUnits="userSpaceOnUse">
      <stop offset="0" stop-color="#e1d200"/>
      <stop offset=".62" stop-color="#ee3424"/>
      <stop offset="1" stop-color="#6c217f"/>
    </linearGradient>
    <linearGradient id="linear-gradient-3" x1="2457.24" y1="-777.23" x2="2491.94" y2="-777.23" xlink:href="#linear-gradient-2"/>
    <linearGradient id="linear-gradient-4" x1="2461.4" y1="-783.4" x2="2491.04" y2="-783.4" xlink:href="#linear-gradient"/>
    <linearGradient id="linear-gradient-5" x1="2457.3" y1="-785.29" x2="2492.29" y2="-785.29" xlink:href="#linear-gradient-2"/>
  </defs>
  <g>
    <g>
      <g>
        <path class="cls-6" d="M48.5,33.91c0,.38.02.76.08,1.07h-.74l-.06-.56h-.03c-.25.35-.73.66-1.36.66-.9,0-1.36-.64-1.36-1.28,0-1.08.95-1.66,2.67-1.66v-.09c0-.37-.1-1.03-1.01-1.03-.41,0-.85.13-1.16.33l-.19-.53c.37-.24.9-.4,1.47-.4,1.36,0,1.69.93,1.69,1.82v1.67h0ZM47.72,32.71c-.88-.02-1.89.14-1.89,1.01,0,.52.35.77.76.77.58,0,.95-.37,1.08-.74.03-.08.05-.18.05-.26v-.78Z"/>
        <path class="cls-6" d="M50.63,29.28c.01.28-.19.49-.51.49-.28,0-.49-.22-.49-.49s.21-.51.51-.51.5.22.5.51ZM49.73,34.98v-4.46h.81v4.46h-.81Z"/>
        <path class="cls-6" d="M51.99,31.92c0-.53,0-.97-.04-1.39h.71l.03.88h.04c.2-.6.69-.98,1.23-.98.09,0,.16.01.23.03v.76c-.08-.02-.17-.03-.28-.03-.57,0-.98.44-1.09,1.04-.02.11-.03.24-.03.38v2.37h-.8v-3.07h0Z"/>
        <path class="cls-6" d="M55.1,31.98c0-.57-.02-1.03-.04-1.45h.72l.04.77h.01c.33-.55.86-.87,1.59-.87,1.08,0,1.88.91,1.88,2.27,0,1.6-.97,2.39-2.03,2.39-.59,0-1.1-.26-1.37-.7h-.01v2.42h-.8v-4.82h0ZM55.9,33.17c0,.12.01.23.03.33.15.56.63.95,1.21.95.86,0,1.35-.7,1.35-1.72,0-.89-.47-1.66-1.32-1.66-.55,0-1.07.4-1.22,1-.03.1-.05.22-.05.33v.76h0Z"/>
        <path class="cls-6" d="M64.26,32.72c0,1.65-1.14,2.37-2.22,2.37-1.21,0-2.14-.88-2.14-2.29,0-1.49.97-2.37,2.21-2.37s2.15.93,2.15,2.29ZM60.73,32.77c0,.97.56,1.71,1.35,1.71s1.36-.73,1.36-1.73c0-.75-.38-1.71-1.34-1.71s-1.37.88-1.37,1.73h0Z"/>
        <path class="cls-6" d="M65.15,31.92c0-.53-.01-.97-.04-1.39h.71l.03.88h.03c.2-.6.69-.98,1.23-.98.09,0,.16.01.23.03v.76c-.09-.02-.16-.03-.28-.03-.57,0-.98.44-1.09,1.04-.02.11-.04.24-.04.38v2.37h-.8v-3.07h0Z"/>
        <path class="cls-6" d="M69.58,29.46v1.07h1.16v.62h-1.16v2.4c0,.55.16.86.61.86.22,0,.35-.02.47-.06l.03.61c-.15.07-.4.12-.72.12-.38,0-.68-.13-.87-.35-.23-.24-.32-.63-.32-1.16v-2.43h-.69v-.62h.69v-.82l.79-.25h0Z"/>
      </g>
      <g>
        <path class="cls-6" d="M77.51,34.34c0,1.02-.21,1.65-.64,2.03-.43.4-1.06.53-1.62.53s-1.12-.13-1.48-.37l.2-.62c.3.18.76.36,1.31.36.83,0,1.44-.43,1.44-1.56v-.5h-.02c-.25.41-.72.74-1.42.74-1.1,0-1.9-.93-1.9-2.17,0-1.51.99-2.37,2.01-2.37.77,0,1.2.41,1.39.77h.02l.04-.67h.71c-.02.32-.03.68-.03,1.23v2.59h0ZM76.71,32.29c0-.14-.01-.26-.05-.37-.15-.47-.54-.86-1.13-.86-.78,0-1.33.66-1.33,1.68,0,.88.44,1.6,1.32,1.6.5,0,.95-.31,1.12-.82.05-.14.07-.29.07-.43v-.8h0Z"/>
        <path class="cls-6" d="M78.79,31.92c0-.53-.01-.97-.04-1.39h.7l.03.88h.04c.2-.6.69-.98,1.23-.98.09,0,.15.01.23.03v.76c-.08-.02-.16-.03-.28-.03-.57,0-.97.44-1.08,1.04-.02.11-.04.24-.04.38v2.37h-.8v-3.07h0Z"/>
        <path class="cls-6" d="M85.79,32.72c0,1.65-1.14,2.37-2.22,2.37-1.21,0-2.13-.88-2.13-2.29,0-1.49.98-2.37,2.21-2.37s2.15.93,2.15,2.29h0ZM82.25,32.77c0,.97.56,1.71,1.35,1.71s1.35-.73,1.35-1.73c0-.75-.38-1.71-1.33-1.71s-1.37.88-1.37,1.73h0Z"/>
        <path class="cls-6" d="M90.36,33.77c0,.46,0,.87.04,1.22h-.72l-.05-.73h-.02c-.21.36-.68.83-1.47.83-.7,0-1.54-.39-1.54-1.95v-2.61h.81v2.47c0,.85.26,1.42.99,1.42.55,0,.92-.38,1.07-.74.05-.12.07-.26.07-.41v-2.73h.81v3.24h0Z"/>
        <path class="cls-6" d="M91.61,31.98c0-.57-.02-1.03-.04-1.45h.73l.03.77h.02c.34-.55.86-.87,1.59-.87,1.08,0,1.89.91,1.89,2.27,0,1.6-.98,2.39-2.02,2.39-.59,0-1.1-.26-1.37-.7h-.02v2.42h-.8v-4.82h0ZM92.41,33.17c0,.12.02.23.04.33.15.56.63.95,1.21.95.86,0,1.36-.7,1.36-1.72,0-.89-.47-1.66-1.33-1.66-.55,0-1.07.4-1.22,1-.03.1-.05.22-.05.33v.76h0Z"/>
      </g>
    </g>
    <g>
      <path class="cls-6" d="M137.08,11.17h0c-.83.6-1.71,1.13-2.64,1.59h0c-.15.07-.21.25-.21.38v11.72h3.26v-13.41c0-.68-.42-.29-.42-.29h0Z"/>
      <path class="cls-6" d="M57.12,18.92l-.09.15c-1.4,2.29-2.96,3.27-5.13,3.27-3.04,0-5.21-2.08-5.21-4.96,0-2.9,2.17-4.99,5.21-5,2.03,0,3.59.92,4.71,2.77l.09.15,2.74-1.76-.11-.15c-1.85-2.54-4.37-3.85-7.43-3.84-4.9,0-8.49,3.29-8.5,7.83.01,4.52,3.6,7.79,8.5,7.8h.01c3.32,0,6-1.52,7.72-4.36l.08-.14-2.6-1.75h0Z"/>
      <polygon class="cls-6" points="73.07 9.86 73.07 15.28 73.05 15.28 65.54 15.28 65.51 15.28 65.51 15.26 65.51 9.86 62.25 9.86 62.25 24.82 65.51 24.82 65.51 18.09 73.07 18.09 73.07 24.82 76.3 24.82 76.3 9.86 73.07 9.86"/>
      <path class="cls-6" d="M95.79,24.57l-7.61-14.71h-2.34l-7.66,14.96h3.38l1.89-3.69h0s0-.01,0-.01h7.13s1.95,3.7,1.95,3.7h3.38l-.13-.25ZM87.01,14.21v.02s2.12,4.03,2.12,4.03l.02.04h-4.25l.02-.04,2.08-4.03v-.02s.01,0,.01,0Z"/>
      <polygon class="cls-6" points="108.59 9.86 108.59 19.09 108.55 19.05 99.75 9.86 97.8 9.86 97.8 24.81 101.03 24.81 101.03 15.58 101.07 15.63 109.9 24.81 111.83 24.81 111.83 9.86 108.59 9.86"/>
      <path class="cls-6" d="M123.46,19.28h4.12v1.01h0c-1.08,1.39-2.45,2.05-4.28,2.05-3.03,0-5.2-2.08-5.21-4.96,0-2.9,2.17-4.99,5.21-4.99,2.03,0,3.59.92,4.71,2.77l.09.15,2.73-1.76-.11-.15c-1.85-2.54-4.37-3.85-7.43-3.85-4.9,0-8.49,3.29-8.49,7.83,0,4.52,3.59,7.79,8.49,7.8h0c3.21,0,5.83-1.37,7.49-3.94l.03-.05v-4.72h-7.36v2.81h0Z"/>
    </g>
  </g>
  <g>
    <path class="cls-1" d="M5.8,4.91c.69-3.43,4.81-3.02,4.81-3.02h0c4.76.43,9.02,5.98,11.32,9.6,3.57,5.62,5.97,12.3,6.11,19.02,0,.13.1.14.19.1.15-.11.31-.22.46-.33h0c.19-.14.37-.29.56-.44.13-.11.25-.22.38-.32.08-.08.14-.21.14-.39-.19-7.27-2.42-14.56-6.97-20.3-2.25-2.84-6.36-6.8-10.49-7.6h0S7.73.18,5.42,4.12l.38.81"/>
    <path class="cls-3" d="M.57,18.4c1.11,8.68,8.54,15.39,17.54,15.39,2.42,0,4.73-.49,6.83-1.36.26-.12.24-.19.11-.24-10.93.21-20.53-6.65-24.38-14.13-.11-.11-.13.11-.1.34h0Z"/>
    <path class="cls-4" d="M35.17,11.51c-.02-.07-.04-.13-.05-.2-.09-.32-.44-1.2-.69-1.76C29.07-1.45,15.22-2.3,6.74,4.16l-.04.03s-2.15,1.55-3.64,3.64c-1.49,2.1-2.14,4.07-2.37,5.22-.17.83-.2,1.26-.17,1.46v.02c0,.08.03.12.07.14.1.07.36-.09.56-.2.14-.08.62-.32,1.04-.51,1.34-.58,2.85-1.06,4.42-1.39-.08-.13-.19-.26-.28-.4-.64-.96-1.13-2.07-1.41-3.13-1.11.72-2.18,1.58-3.17,2.59,4.29-9.73,23.64-16.23,33.25.09h0c.09.15.19.15.19.02,0-.05-.01-.15-.03-.22h0Z"/>
    <path class="cls-2" d="M16.52,17.05c-2.9-1.67-5.96-3.4-8.22-5.92-1.55-1.73-2.82-4.13-2.47-6.46.24-.99,1.13-2.09,2.35-2.53h0c-.65.2-1.3.51-1.96.94-.1.09-.2.19-.3.28-2.05,2.55-1.41,6.1.39,8.8,2.14,3.21,5.82,5.79,9.12,7.66,3.52,1.99,7.33,3.52,11.27,4.46,1.85.45,3.51.54,5.41.67.28.02.56.03.84.04.28,0,.48-.13.59-.3.08-.14.23-.43.23-.43.06-.11.4-.83.51-1.06-6.31-.28-12.38-3.05-17.78-6.15h0Z"/>
    <path class="cls-5" d="M35.77,15.97c-.02-.38-.31-1.06-.85-1.69C28.93,7.6,16.1,3.13,6.38,8.19c.46,1.08,1.15,2.09,1.91,2.94.32.36.69.73,1.01,1.02,9.29-1.01,20.57,2.39,24.04,12.75.1-.06.17-.13.22-.22,1.4-2.53,2.21-5.44,2.21-8.54,0-.06,0-.11,0-.17h0Z"/>
  </g>
</svg>