<svg width="30" height="30" viewBox="0 0 30 30" fill="none" xmlns="http://www.w3.org/2000/svg">
<g id="icons/social-networks">
<path id="Subtract" fill-rule="evenodd" clip-rule="evenodd" d="M23.8034 7.61466C24.7671 7.87421 25.527 8.63398 25.7864 9.59786C26.2684 11.3584 26.2499 15.0282 26.2499 15.0282C26.2499 15.0282 26.2499 18.6792 25.7866 20.4399C25.527 21.4036 24.7673 22.1636 23.8034 22.423C22.0427 22.8865 15 22.8865 15 22.8865C15 22.8865 7.9756 22.8865 6.19651 22.4046C5.23263 22.1451 4.47286 21.3851 4.21331 20.4214C3.75 18.6792 3.75 15.0096 3.75 15.0096C3.75 15.0096 3.75 11.3584 4.21331 9.59786C4.47269 8.63416 5.25117 7.85568 6.19634 7.5963C7.95706 7.13281 14.9998 7.13281 14.9998 7.13281C14.9998 7.13281 22.0427 7.13281 23.8034 7.61466ZM18.6144 15.0097L12.7578 18.3829V11.6366L18.6144 15.0097Z" fill="white"/>
</g>
</svg>
