<svg width="30" height="30" viewBox="0 0 30 30" xmlns="http://www.w3.org/2000/svg"><defs><linearGradient x1="-.61%" y1="50.05%" x2="99.92%" y2="50.05%" id="a"><stop stop-color="#ED0000" offset="0%"/><stop stop-color="#E90000" offset="7.73%"/><stop stop-color="#D10000" offset="64.86%"/><stop stop-color="#C80000" offset="100%"/></linearGradient><linearGradient x1="50.01%" y1="99.02%" x2="50.01%" y2=".46%" id="b"><stop stop-color="#A50000" stop-opacity="0" offset="0%"/><stop stop-color="#A50000" offset="100%"/></linearGradient></defs><g fill="none"><path d="M29.304 21.144l-4.965-6.219 4.965-6.219c.301-.374.15-.674-.3-.674h-1.882c-.075 0-.225.075-.3.15l-6.47 6.743h-.377l4.965-6.219c.301-.374.15-.674-.3-.674h-1.881c-.076 0-.226.075-.301.15l-6.47 6.743h-.377l5.417-6.743c.075-.075.075-.225.075-.3L19.223.39c-.076-.45-.452-.525-.753-.15l-4.965 6.219-7.148-3.447c-.451-.225-.677 0-.602.45l1.73 7.717L.34 14.625c-.452.225-.452.525 0 .75l7.147 3.446-1.73 7.717c-.076.45.15.675.601.45l7.148-3.447 4.965 6.22c.301.374.602.299.753-.15l1.73-7.718h7.975c.527-.075.677-.375.376-.75z" fill="#ED0000"/><path d="M29.304 21.144l-4.965-6.219 4.965-6.219c.301-.374.15-.674-.3-.674h-1.882c-.075 0-.225.075-.3.15l-6.47 6.743h-.377l4.965-6.219c.301-.374.15-.674-.3-.674h-1.881c-.076 0-.226.075-.301.15l-6.47 6.743h-.377V25.94l3.01 3.746c.3.375.602.3.752-.15l1.73-7.717h7.975c.377 0 .527-.3.226-.674z" fill="url(#a)"/><path d="M29.304 8.781L24.34 15h-3.99l6.47-6.743c.076-.075.226-.15.301-.15h1.881c.452-.075.602.3.301.674zm-4.74-.749h-1.88c-.076 0-.226.075-.302.15l-6.47 6.743H19.9l4.965-6.219c.301-.3.15-.674-.3-.674z" fill="url(#b)"/></g></svg>
