<svg width="118" height="41" viewBox="0 0 118 41" fill="none" xmlns="http://www.w3.org/2000/svg">
<g id="App Store">
<g id="buttons/appstore">
<path id="Vector" d="M7.5488 40.2477C7.24496 40.2477 6.94859 40.2435 6.64724 40.2364C6.08981 40.22 5.42893 40.1874 4.78398 40.0659C4.17557 39.9503 3.63479 39.7626 3.1323 39.4929C2.6124 39.2162 2.14521 38.8589 1.73969 38.4299C1.32696 38.005 0.987571 37.5171 0.722278 36.9697C0.463697 36.4418 0.287166 35.8751 0.180999 35.2366C0.0594167 34.533 0.0280889 33.8192 0.0149112 33.2759C0.00869536 33.0553 0.000244141 32.3211 0.000244141 32.3211V8.16529C0.000244141 8.16529 0.00894399 7.44236 0.0149112 7.2298C0.0280889 6.68186 0.0591686 5.96857 0.180005 5.27223C0.286669 4.6304 0.4632 4.06421 0.72178 3.53426C0.986577 2.9858 1.32646 2.49523 1.73373 2.07247C2.14596 1.63955 2.61538 1.28094 3.1318 1.00319C3.64398 0.730655 4.18377 0.544183 4.78 0.434386C5.45131 0.308159 6.13182 0.276605 6.64973 0.262782L7.54929 0.25H110L110.91 0.263303C111.421 0.276604 112.102 0.308159 112.763 0.433343C113.363 0.543662 113.907 0.730918 114.428 1.00632C114.939 1.28095 115.408 1.63954 115.816 2.0683C116.224 2.49314 116.565 2.98632 116.836 3.53687C117.093 4.07151 117.268 4.63771 117.369 5.26102C117.485 5.92085 117.521 6.59814 117.543 7.2345C117.546 7.53051 117.546 7.84868 117.546 8.16529C117.554 8.55754 117.554 8.93074 117.554 9.30708V31.1919C117.554 31.5719 117.554 31.9425 117.546 32.3162C117.546 32.6563 117.546 32.9677 117.542 33.2885C117.521 33.9042 117.485 34.5812 117.371 35.2267C117.268 35.868 117.093 36.4348 116.833 36.973C116.564 37.5163 116.223 38.0074 115.821 38.4221C115.409 38.8592 114.941 39.2154 114.425 39.4913C113.909 39.767 113.381 39.9498 112.763 40.0661C112.124 40.1877 111.463 40.2203 110.899 40.2367C110.607 40.2437 110.301 40.2479 110.004 40.2479L108.924 40.25L7.5488 40.2477Z" fill="black"/>
<path id="XMLID_25_" d="M23.8233 20.5621C23.7984 17.6854 26.0687 16.2857 26.1726 16.2203C24.8869 14.2538 22.8939 13.9849 22.1937 13.9641C20.5197 13.7797 18.8968 15.0148 18.0438 15.0148C17.1743 15.0148 15.8608 13.9823 14.4465 14.0128C12.6258 14.0426 10.9219 15.1481 9.98751 16.8652C8.05959 20.3665 9.4977 25.5126 11.3446 28.3428C12.2685 29.7287 13.3486 31.2768 14.7615 31.2218C16.1444 31.1615 16.6609 30.297 18.33 30.297C19.9836 30.297 20.4682 31.2218 21.9098 31.1868C23.3936 31.1615 24.3285 29.7947 25.2201 28.3957C26.288 26.8067 26.7166 25.2421 26.7338 25.1621C26.699 25.1501 23.8516 24.0109 23.8233 20.5621Z" fill="white"/>
<path id="XMLID_24_" d="M21.0976 12.1033C21.841 11.1274 22.35 9.80042 22.2088 8.45312C21.1322 8.5032 19.7861 9.2337 19.0111 10.1885C18.3256 11.0293 17.7127 12.4079 17.8708 13.7036C19.0799 13.7977 20.3214 13.0638 21.0976 12.1033Z" fill="white"/>
<path id="Vector_2" d="M41.304 27.7176H36.5852L35.4519 31.2274H33.4531L37.9226 18.2422H39.9992L44.4686 31.2274H42.4363L41.304 27.7176ZM37.074 26.098H40.8145L38.9706 20.4019H38.9191L37.074 26.098Z" fill="white"/>
<path id="Vector_3" d="M54.1214 26.4897C54.1214 29.4318 52.6202 31.3218 50.3549 31.3218C49.0689 31.3218 48.0475 30.7183 47.515 29.6654H47.4722V34.3546H45.6196V21.7554H47.4128V23.3301H47.4468C47.9618 22.314 49.06 21.6562 50.3208 21.6562C52.6115 21.6565 54.1214 23.5559 54.1214 26.4897ZM52.2172 26.4897C52.2172 24.573 51.2728 23.3129 49.832 23.3129C48.4165 23.3129 47.4643 24.5996 47.4643 26.4897C47.4643 28.3972 48.4163 29.6748 49.832 29.6748C51.2728 29.6748 52.2172 28.4238 52.2172 26.4897Z" fill="white"/>
<path id="Vector_4" d="M64.0572 26.4897C64.0572 29.4318 62.556 31.3218 60.2907 31.3218C59.0047 31.3218 57.9833 30.7183 57.4508 29.6654H57.408V34.3546H55.5554V21.7554H57.3488V23.3301H57.3829C57.8978 22.314 58.996 21.6562 60.2569 21.6562C62.5473 21.6565 64.0572 23.5559 64.0572 26.4897ZM62.1529 26.4897C62.1529 24.573 61.2086 23.3129 59.7678 23.3129C58.3523 23.3129 57.4 24.5996 57.4 26.4897C57.4 28.3972 58.3521 29.6748 59.7678 29.6748C61.2086 29.6748 62.1529 28.4238 62.1529 26.4897Z" fill="white"/>
<path id="Vector_5" d="M70.6202 27.6071C70.7575 28.8949 71.9502 29.7404 73.5797 29.7404C75.1414 29.7404 76.2647 28.8949 76.2647 27.7338C76.2647 26.7258 75.5872 26.1223 73.9828 25.7087L72.3783 25.3034C70.105 24.7276 69.0498 23.6124 69.0498 21.8027C69.0498 19.5622 70.9111 18.0234 73.5544 18.0234C76.1702 18.0234 77.9634 19.5624 78.0238 21.8027H76.1536C76.0417 20.5068 75.0203 19.7246 73.528 19.7246C72.0354 19.7246 71.0143 20.5162 71.0143 21.6679C71.0143 22.5859 71.6665 23.126 73.2622 23.5396L74.6262 23.8909C77.1663 24.521 78.2215 25.5911 78.2215 27.4905C78.2215 29.9198 76.3766 31.4414 73.4425 31.4414C70.697 31.4414 68.8435 29.9556 68.7236 27.6068L70.6202 27.6071Z" fill="white"/>
<path id="Vector_6" d="M82.2205 19.5156V21.7562H83.9368V23.2951H82.2205V28.5143C82.2205 29.3251 82.5641 29.703 83.3187 29.703C83.5076 29.703 83.8082 29.6754 83.9281 29.6582V31.1877C83.7227 31.242 83.311 31.2777 82.899 31.2777C81.0715 31.2777 80.3589 30.5579 80.3589 28.7216V23.2951H79.0466V21.7562H80.3589V19.5156H82.2205Z" fill="white"/>
<path id="Vector_7" d="M84.9307 26.4913C84.9307 23.5124 86.6032 21.6406 89.2114 21.6406C91.8283 21.6406 93.4931 23.5124 93.4931 26.4913C93.4931 29.4782 91.8372 31.3419 89.2114 31.3419C86.5868 31.3419 84.9307 29.4782 84.9307 26.4913ZM91.6053 26.4913C91.6053 24.4479 90.7127 23.2419 89.2114 23.2419C87.7102 23.2419 86.8185 24.4573 86.8185 26.4913C86.8185 28.5427 87.7104 29.7395 89.2114 29.7395C90.7127 29.7398 91.6053 28.543 91.6053 26.4913Z" fill="white"/>
<path id="Vector_8" d="M95.0227 21.7554H96.7898V23.3668H96.8325C97.1157 22.2957 97.9394 21.6562 99.0036 21.6562C99.2694 21.6562 99.4924 21.693 99.6384 21.7288V23.5465C99.4924 23.4832 99.1662 23.4292 98.8059 23.4292C97.6132 23.4292 96.8753 24.2757 96.8753 25.6074V31.2229H95.0227V21.7554Z" fill="white"/>
<path id="Vector_9" d="M108.181 28.4439C107.932 30.1625 106.336 31.3419 104.294 31.3419C101.669 31.3419 100.039 29.4967 100.039 26.5361C100.039 23.5666 101.678 21.6406 104.217 21.6406C106.714 21.6406 108.284 23.4399 108.284 26.3105V26.9763H101.909V27.0937C101.909 28.7133 102.879 29.7752 104.337 29.7752C105.366 29.7752 106.173 29.2625 106.422 28.4436L108.181 28.4439ZM101.918 25.6184H106.43C106.388 24.1693 105.504 23.2156 104.217 23.2156C102.938 23.2153 102.012 24.1876 101.918 25.6184Z" fill="white"/>
<path id="Vector_10" d="M36.8384 8.46484C38.6025 8.46484 39.6373 9.60193 39.6373 11.5652C39.6373 13.5585 38.6102 14.7042 36.8384 14.7042H34.6897V8.46484H36.8384ZM35.6136 13.8219H36.7352C37.9794 13.8219 38.6969 13.009 38.6969 11.578C38.6969 10.1684 37.9677 9.34661 36.7352 9.34661H35.6136V13.8219Z" fill="white"/>
<path id="Vector_11" d="M40.6816 12.3494C40.6816 10.8316 41.4897 9.90625 42.8 9.90625C44.1076 9.90625 44.9154 10.8316 44.9154 12.3494C44.9154 13.8756 44.1113 14.7968 42.8 14.7968C41.4857 14.7968 40.6816 13.8756 40.6816 12.3494ZM44.0041 12.3494C44.0041 11.3287 43.567 10.7319 42.7998 10.7319C42.0297 10.7319 41.5964 11.3289 41.5964 12.3494C41.5964 13.3783 42.0295 13.9706 42.7998 13.9706C43.567 13.9706 44.0041 13.3741 44.0041 12.3494Z" fill="white"/>
<path id="Vector_12" d="M50.5411 14.7046H49.6221L48.6945 11.2367H48.6244L47.7004 14.7046H46.7902L45.5527 9.99609H46.4513L47.2554 13.5891H47.3215L48.2445 9.99609H49.0943L50.0172 13.5891H50.0873L50.8874 9.99609H51.7733L50.5411 14.7046Z" fill="white"/>
<path id="Vector_13" d="M52.8181 9.99727H53.6709V10.7452H53.7371C53.9551 10.2218 54.4009 9.90625 55.0767 9.90625C56.0785 9.90625 56.6304 10.5374 56.6304 11.6575V14.7058H55.7445V11.8909C55.7445 11.1344 55.431 10.758 54.7759 10.758C54.1207 10.758 53.704 11.2165 53.704 11.9512V14.7058H52.8181V9.99727Z" fill="white"/>
<path id="Vector_14" d="M58.0393 8.15625H58.9252V14.7029H58.0393V8.15625Z" fill="white"/>
<path id="Vector_15" d="M60.1545 12.3494C60.1545 10.8316 60.9626 9.90625 62.2729 9.90625C63.5805 9.90625 64.3888 10.8316 64.3888 12.3494C64.3888 13.8756 63.5842 14.7968 62.2729 14.7968C60.9586 14.7968 60.1545 13.8756 60.1545 12.3494ZM63.4773 12.3494C63.4773 11.3287 63.0402 10.7319 62.2732 10.7319C61.5031 10.7319 61.0698 11.3289 61.0698 12.3494C61.0698 13.3783 61.5029 13.9706 62.2732 13.9706C63.0402 13.9706 63.4773 13.3741 63.4773 12.3494Z" fill="white"/>
<path id="Vector_16" d="M65.3235 13.3741C65.3235 12.5265 65.9252 12.038 66.9931 11.9684L68.2091 11.8949V11.4885C68.2091 10.9912 67.8956 10.7103 67.2902 10.7103C66.7957 10.7103 66.453 10.9007 66.3546 11.2337H65.4968C65.5873 10.425 66.3126 9.90625 67.331 9.90625C68.4563 9.90625 69.091 10.4938 69.091 11.4885V14.7058H68.2382V14.0441H68.1681C67.9003 14.5154 67.4098 14.7835 66.8198 14.7835C65.9543 14.7835 65.3235 14.2345 65.3235 13.3741ZM68.2091 12.972V12.5784L67.1129 12.652C66.4948 12.6952 66.2143 12.9159 66.2143 13.3311C66.2143 13.7549 66.5649 14.0013 67.0468 14.0013C67.7144 14.0011 68.2091 13.5554 68.2091 12.972Z" fill="white"/>
<path id="Vector_17" d="M70.2542 12.3465C70.2542 10.8587 70.9834 9.91613 72.1174 9.91613C72.7318 9.91613 73.2507 10.2231 73.4941 10.7423H73.5602V8.15625H74.4461V14.7029H73.5973V13.9591H73.5272C73.2594 14.4736 72.7358 14.7806 72.1174 14.7806C70.9754 14.7806 70.2542 13.838 70.2542 12.3465ZM71.1694 12.3465C71.1694 13.3451 71.6182 13.9463 72.3688 13.9463C73.1154 13.9463 73.5769 13.3365 73.5769 12.3507C73.5769 11.3693 73.1105 10.751 72.3688 10.751C71.6229 10.751 71.1694 11.356 71.1694 12.3465Z" fill="white"/>
<path id="Vector_18" d="M78.1118 12.3494C78.1118 10.8316 78.9199 9.90625 80.2302 9.90625C81.5378 9.90625 82.3456 10.8316 82.3456 12.3494C82.3456 13.8756 81.5415 14.7968 80.2302 14.7968C78.9162 14.7968 78.1118 13.8756 78.1118 12.3494ZM81.4346 12.3494C81.4346 11.3287 80.9975 10.7319 80.2302 10.7319C79.4602 10.7319 79.0268 11.3289 79.0268 12.3494C79.0268 13.3783 79.4599 13.9706 80.2302 13.9706C80.9975 13.9706 81.4346 13.3741 81.4346 12.3494Z" fill="white"/>
<path id="Vector_19" d="M83.5378 9.99727H84.3907V10.7452H84.4568C84.6748 10.2218 85.1207 9.90625 85.7964 9.90625C86.7982 9.90625 87.3502 10.5374 87.3502 11.6575V14.7058H86.4643V11.8909C86.4643 11.1344 86.1507 10.758 85.4956 10.758C84.8404 10.758 84.4237 11.2165 84.4237 11.9512V14.7058H83.5378V9.99727Z" fill="white"/>
<path id="Vector_20" d="M92.3541 8.82422V10.0179H93.3268V10.8006H92.3541V13.2218C92.3541 13.715 92.5478 13.931 92.9889 13.931C93.1251 13.931 93.2029 13.9223 93.3268 13.9096V14.6836C93.1828 14.7092 93.0172 14.7311 92.8449 14.7311C91.8596 14.7311 91.4675 14.3675 91.4675 13.4597V10.8006H90.7549V10.0179H91.4675V8.82422H92.3541Z" fill="white"/>
<path id="Vector_21" d="M94.5386 8.15625H95.4168V10.751H95.4869C95.7049 10.2231 96.1791 9.90752 96.8556 9.90752C97.8116 9.90752 98.4016 10.5434 98.4016 11.663V14.7029H97.5147V11.8922C97.5147 11.1401 97.1808 10.7593 96.5548 10.7593C95.8285 10.7593 95.4245 11.2397 95.4245 11.953V14.7029H94.5386V8.15625Z" fill="white"/>
<path id="Vector_22" d="M103.566 13.4346C103.364 14.278 102.647 14.7968 101.621 14.7968C100.335 14.7968 99.5474 13.8715 99.5474 12.3664C99.5474 10.8616 100.351 9.90625 101.617 9.90625C102.866 9.90625 103.62 10.8013 103.62 12.2801V12.6042H100.45V12.6564C100.479 13.4821 100.936 14.0053 101.645 14.0053C102.181 14.0053 102.549 13.8021 102.713 13.4344L103.566 13.4346ZM100.45 11.9173H102.717C102.697 11.1779 102.268 10.6975 101.612 10.6975C100.957 10.6975 100.499 11.1821 100.45 11.9173Z" fill="white"/>
</g>
</g>
</svg>
