<svg width="16" height="16" viewBox="0 0 16 16" fill="none" xmlns="http://www.w3.org/2000/svg">
<path fill-rule="evenodd" clip-rule="evenodd" d="M8.00016 2.54537C4.9877 2.54537 2.54562 4.98746 2.54562 7.99992C2.54562 11.0124 4.9877 13.4545 8.00016 13.4545C11.0126 13.4545 13.4547 11.0124 13.4547 7.99992C13.4547 4.98746 11.0126 2.54537 8.00016 2.54537ZM1.3335 7.99992C1.3335 4.31802 4.31826 1.33325 8.00016 1.33325C11.6821 1.33325 14.6668 4.31802 14.6668 7.99992C14.6668 11.6818 11.6821 14.6666 8.00016 14.6666C4.31826 14.6666 1.3335 11.6818 1.3335 7.99992Z" fill="white" style="fill:white;fill-opacity:1;"/>
<path fill-rule="evenodd" clip-rule="evenodd" d="M6.84868 3.93951C6.44513 4.94838 6.18198 6.38369 6.18198 7.99992C6.18198 9.61614 6.44513 11.0515 6.84868 12.0603C7.05113 12.5664 7.27703 12.9354 7.49687 13.1678C7.71551 13.399 7.88579 13.4545 8.00016 13.4545C8.11454 13.4545 8.28482 13.399 8.50345 13.1678C8.7233 12.9354 8.9492 12.5664 9.15165 12.0603C9.5552 11.0515 9.81835 9.61614 9.81835 7.99992C9.81835 6.38369 9.5552 4.94838 9.15165 3.93951C8.9492 3.43339 8.7233 3.06448 8.50345 2.83201C8.28482 2.60083 8.11454 2.54537 8.00016 2.54537C7.88579 2.54537 7.71551 2.60083 7.49687 2.83201C7.27703 3.06448 7.05113 3.43339 6.84868 3.93951ZM6.6162 1.99916C6.97763 1.61698 7.4451 1.33325 8.00016 1.33325C8.55522 1.33325 9.02269 1.61698 9.38412 1.99916C9.74434 2.38006 10.0408 2.8987 10.2771 3.48934C10.7509 4.67397 11.0305 6.26896 11.0305 7.99992C11.0305 9.73087 10.7509 11.3259 10.2771 12.5105C10.0408 13.1011 9.74434 13.6198 9.38412 14.0007C9.02269 14.3829 8.55522 14.6666 8.00016 14.6666C7.4451 14.6666 6.97763 14.3829 6.6162 14.0007C6.25598 13.6198 5.95951 13.1011 5.72325 12.5105C5.2494 11.3259 4.96986 9.73087 4.96986 7.99992C4.96986 6.26896 5.2494 4.67397 5.72325 3.48934C5.95951 2.8987 6.25598 2.38006 6.6162 1.99916Z" fill="white" style="fill:white;fill-opacity:1;"/>
<path fill-rule="evenodd" clip-rule="evenodd" d="M14.0608 6.7878H1.93956V5.57568H14.0608V6.7878Z" fill="white" style="fill:white;fill-opacity:1;"/>
<path fill-rule="evenodd" clip-rule="evenodd" d="M14.0608 10.4242H1.93956V9.21204H14.0608V10.4242Z" fill="white" style="fill:white;fill-opacity:1;"/>
</svg>
