<svg width="119" height="41" viewBox="0 0 119 41" fill="none" xmlns="http://www.w3.org/2000/svg">
<g id="Google Play">
<g id="buttons/googleplay">
<path id="Vector" d="M8.10182 40.2479C7.79799 40.2479 7.50161 40.2437 7.20027 40.2367C6.64282 40.2203 5.98195 40.1877 5.33698 40.0661C4.72857 39.9506 4.18779 39.7628 3.68529 39.4931C3.1654 39.2164 2.69821 38.8591 2.29268 38.4301C1.87994 38.0053 1.54056 37.5173 1.27526 36.9699C1.01693 36.442 0.840146 35.8753 0.733979 35.2369C0.612396 34.5332 0.581068 33.8194 0.56789 33.2761C0.561674 33.0555 0.553223 32.3214 0.553223 32.3214V8.16534C0.553223 8.16534 0.561923 7.4424 0.56789 7.22985C0.581068 6.6819 0.612147 5.96861 0.732985 5.27227C0.83965 4.63043 1.01618 4.06423 1.27476 3.53428C1.53956 2.98581 1.87945 2.49524 2.28672 2.07248C2.69895 1.63955 3.16838 1.28095 3.68479 1.0032C4.19699 0.730658 4.73678 0.544184 5.33301 0.434387C6.00433 0.308159 6.68484 0.276602 7.20275 0.262779L8.10232 0.25H110.553L111.464 0.263301C111.975 0.276601 112.655 0.308159 113.316 0.433344C113.917 0.543663 114.46 0.730919 114.982 1.00633C115.493 1.28095 115.962 1.63955 116.37 2.06831C116.778 2.49316 117.119 2.98634 117.39 3.53663C117.647 4.07127 117.822 4.63747 117.923 5.26079C118.039 5.92062 118.075 6.59792 118.097 7.23428C118.1 7.53055 118.1 7.84847 118.1 8.16508C118.107 8.55733 118.108 8.93054 118.108 9.30687V31.1918C118.108 31.5718 118.107 31.9424 118.1 32.3161C118.1 32.6562 118.1 32.9676 118.096 33.2884C118.075 33.9042 118.039 34.5812 117.925 35.2267C117.822 35.868 117.647 36.4347 117.387 36.973C117.118 37.5163 116.777 38.0074 116.375 38.422C115.963 38.8591 115.495 39.2154 114.979 39.4913C114.462 39.767 113.935 39.9498 113.317 40.0661C112.678 40.1877 112.017 40.2203 111.453 40.2367C111.161 40.2437 110.855 40.2479 110.558 40.2479L109.478 40.25L8.10182 40.2479Z" fill="black"/>
<path id="Vector_2" d="M41.5597 11.4267L41.5562 11.4104H38.9532V12.1132H40.8755C40.8342 12.5701 40.6874 12.9331 40.4391 13.1917C40.0516 13.5946 39.5581 13.7989 38.9732 13.7989C38.4273 13.7989 37.9443 13.5958 37.5371 13.1961C37.1373 12.7943 36.9344 12.2654 36.9344 11.6236C36.9344 10.9841 37.1371 10.4565 37.5371 10.0549C37.9406 9.65471 38.4236 9.45188 38.9732 9.45188C39.5897 9.45188 40.0608 9.66143 40.413 10.0929L40.4269 10.11L40.9164 9.59761L40.9047 9.58288C40.7008 9.32734 40.4197 9.11934 40.0688 8.96482C39.7136 8.80953 39.345 8.73047 38.9729 8.73047C38.2068 8.73047 37.5461 9.01107 37.009 9.56428C36.4721 10.1157 36.1997 10.8087 36.1997 11.6236C36.1997 12.4365 36.4719 13.1305 37.009 13.6865C37.5475 14.2369 38.2083 14.516 38.9727 14.516C39.7727 14.516 40.4339 14.2397 40.9376 13.6953C41.3767 13.2336 41.5993 12.6117 41.5993 11.8466C41.5998 11.6897 41.5871 11.5562 41.5597 11.4267Z" fill="white"/>
<path id="Vector_3" d="M42.5417 14.3932H45.6746V13.6767H43.2633V11.9778H45.4378V11.274H43.2633V9.57484H45.6746V8.85938H42.5417V14.3932Z" fill="white"/>
<path id="Vector_4" d="M46.3477 9.57484H47.8268V14.3932H48.5494V9.57484H50.0291V8.85938H46.3477V9.57484Z" fill="white"/>
<path id="Vector_5" d="M53.3487 8.88281H52.6265V14.3655H53.3487V8.88281Z" fill="white"/>
<path id="Vector_6" d="M54.1682 9.57484H55.6534V14.3932H56.3697V9.57484H57.8548V8.85938H54.1682V9.57484Z" fill="white"/>
<path id="Vector_7" d="M62.788 8.73047C62.0107 8.73047 61.351 9.01262 60.8276 9.56918C60.3054 10.1247 60.041 10.8159 60.041 11.6239C60.041 12.431 60.3057 13.122 60.8276 13.6778C61.3512 14.2343 62.0109 14.5165 62.788 14.5165C63.5624 14.5165 64.2206 14.2343 64.7443 13.6778C65.2664 13.1222 65.5308 12.431 65.5308 11.6239C65.5308 10.8221 65.2647 10.1325 64.74 9.57384C64.2181 9.01417 63.5612 8.73047 62.788 8.73047ZM64.7966 11.6236C64.7966 12.2543 64.5997 12.7804 64.2109 13.1873C63.8283 13.593 63.3493 13.7989 62.788 13.7989C62.221 13.7989 61.7545 13.5989 61.3609 13.1873C60.9721 12.7806 60.7753 12.2543 60.7753 11.6236C60.7753 10.9918 60.9721 10.4655 61.3609 10.0591C61.7495 9.65342 62.2295 9.44749 62.788 9.44749C63.3488 9.44749 63.8276 9.65316 64.2109 10.0591C64.5997 10.4658 64.7966 10.9924 64.7966 11.6236Z" fill="white"/>
<path id="Vector_8" d="M69.851 8.85938V12.0954L69.8794 13.1263L67.3119 8.86894L67.3061 8.85938H66.4463V14.3932H67.1636V10.9492L67.1342 9.91281L69.8299 14.3932H70.5716V8.85938H69.851Z" fill="white"/>
<path id="Vector_9" d="M95.8283 18.5469H94.1716V29.8928H95.8283V18.5469Z" fill="white"/>
<path id="Vector_10" d="M99.8744 22.3672C98.6838 22.3672 97.4451 22.9124 96.9362 24.1208L98.3989 24.7565C98.7132 24.1208 99.2924 23.9149 99.9038 23.9149C100.759 23.9149 101.626 24.4467 101.639 25.3874V25.5076C101.341 25.3288 100.703 25.0642 99.9175 25.0642C98.3421 25.0642 96.7375 25.9629 96.7375 27.6406C96.7375 29.1756 98.0281 30.1634 99.4776 30.1634C100.586 30.1634 101.199 29.6441 101.583 29.041H101.639V29.9257H103.231V25.5342C103.231 23.5033 101.768 22.3672 99.8744 22.3672ZM99.6755 28.6431C99.1364 28.6431 98.385 28.3661 98.385 27.6734C98.385 26.7866 99.3216 26.4471 100.133 26.4471C100.858 26.4471 101.198 26.6124 101.639 26.8318C101.51 27.8917 100.629 28.6431 99.6755 28.6431Z" fill="white"/>
<path id="Vector_11" d="M89.6447 18.4922H85.6921V29.9443H87.3408V25.6053H89.6444C91.4748 25.6053 93.2695 24.2319 93.2695 22.0486C93.2698 19.8658 91.4706 18.4922 89.6447 18.4922ZM89.6876 24.0123H87.3408V20.0851H89.6876C90.9178 20.0851 91.6204 21.1445 91.6204 22.0483C91.6204 22.9341 90.918 24.0123 89.6876 24.0123Z" fill="white"/>
<path id="Vector_12" d="M109.03 22.6172L107.136 27.5823H107.079L105.121 22.6172H103.344L106.286 29.5553L104.608 33.4146H106.33L110.864 22.6172H109.03Z" fill="white"/>
<path id="Vector_13" d="M41.8705 23.5838V25.24H45.6842C45.5723 26.1656 45.2745 26.8456 44.8174 27.3195C44.2606 27.8921 43.3936 28.5277 41.8705 28.5277C39.523 28.5277 37.6849 26.5637 37.6849 24.1303C37.6849 21.6965 39.5228 19.7326 41.8705 19.7326C43.1396 19.7326 44.0632 20.2473 44.7441 20.9136L45.8702 19.747C44.9161 18.8034 43.6483 18.0781 41.8703 18.0781C38.6514 18.0781 35.9465 20.7937 35.9465 24.1303C35.9465 27.4668 38.6514 30.1821 41.8703 30.1821C43.6091 30.1821 44.9161 29.5915 45.9442 28.4825C46.9962 27.3916 47.3242 25.8565 47.3242 24.6176C47.3242 24.2331 47.2933 23.8789 47.2382 23.5835L41.8705 23.5838Z" fill="white"/>
<path id="Vector_14" d="M59.8863 22.3906C57.8107 22.3906 56.1157 24.0277 56.1157 26.2871C56.1157 28.5283 57.8107 30.1827 59.8863 30.1827C61.9662 30.1827 63.6622 28.5283 63.6622 26.2871C63.6622 24.0277 61.9662 22.3906 59.8863 22.3906ZM59.8863 28.6487C58.7476 28.6487 57.7679 27.6743 57.7679 26.2873C57.7679 24.8822 58.7476 23.9252 59.8863 23.9252C61.0253 23.9252 62.0095 24.8822 62.0095 26.2873C62.0093 27.6741 61.0253 28.6487 59.8863 28.6487Z" fill="white"/>
<path id="Vector_15" d="M51.661 22.3906C49.5812 22.3906 47.8894 24.0277 47.8894 26.2871C47.8894 28.5283 49.5809 30.1827 51.661 30.1827C53.7391 30.1827 55.4316 28.5283 55.4316 26.2871C55.4316 24.0277 53.7391 22.3906 51.661 22.3906ZM51.661 28.6487C50.521 28.6487 49.5381 27.6743 49.5381 26.2873C49.5381 24.8822 50.5213 23.9252 51.661 23.9252C52.8 23.9252 53.7795 24.8822 53.7795 26.2873C53.7795 27.6741 52.7998 28.6487 51.661 28.6487Z" fill="white"/>
<path id="Vector_16" d="M74.3522 18.5469H72.6953V29.8928H74.3522V18.5469Z" fill="white"/>
<path id="Vector_17" d="M81.9059 24.8685H81.9069C81.5961 23.9973 80.6388 22.3906 78.6878 22.3906C76.7543 22.3906 75.1455 23.9691 75.1455 26.2871C75.1455 28.4696 76.7381 30.1827 78.873 30.1827C80.5999 30.1827 81.5961 29.0918 82.0058 28.4562L80.725 27.5712C80.2971 28.2187 79.7149 28.6487 78.8733 28.6487C78.0373 28.6487 77.4372 28.2513 77.0534 27.4674L82.0801 25.3119L81.9059 24.8685ZM76.781 26.1661C76.7381 24.6634 77.907 23.8944 78.7439 23.8944C79.3999 23.8944 79.9569 24.2339 80.1421 24.7207L76.781 26.1661Z" fill="white"/>
<path id="Vector_18" d="M69.9876 23.2583H69.9318C69.5607 22.8025 68.8531 22.3906 67.9562 22.3906C66.0742 22.3906 64.3533 24.1037 64.3533 26.2997C64.3533 28.4831 66.074 30.1827 67.9562 30.1827C68.8534 30.1827 69.561 29.7672 69.9318 29.2978H69.9876V29.8569C69.9876 31.3467 69.2198 32.1467 67.9818 32.1467C66.9719 32.1467 66.3454 31.3909 66.0872 30.7553L64.6504 31.3772C65.0646 32.4105 66.1612 33.681 67.9818 33.681C69.9189 33.681 71.5538 32.4999 71.5538 29.6238V22.6273H69.9876V23.2583ZM68.097 28.6487C66.9582 28.6487 66.0052 27.6606 66.0052 26.3C66.0052 24.9264 66.9582 23.9249 68.097 23.9249C69.2198 23.9249 70.1045 24.9264 70.1045 26.3C70.1045 27.6606 69.2198 28.6487 68.097 28.6487Z" fill="white"/>
<path id="_x3C_path_x3E__2_" d="M8.90266 9.36719C8.64345 9.64883 8.49292 10.0868 8.49292 10.655V30.9149C8.49292 31.4828 8.6437 31.9221 8.90266 32.2037L19.9177 20.7831L8.90266 9.36719Z" fill="url(#paint0_linear_5349_21122)"/>
<path id="_x3C_path_x3E__3_" d="M19.9182 20.7834L23.6502 16.9141L27.9736 19.4641C29.2073 20.1873 29.2073 21.3784 27.9736 22.1073L23.6502 24.6529L19.9182 20.7834Z" fill="url(#paint1_linear_5349_21122)"/>
<path id="_x3C_path_x3E__4_" d="M23.6496 24.6547L19.9176 20.7852L8.90259 32.2057C9.31232 32.6517 9.98051 32.706 10.7404 32.259L23.6496 24.6547Z" fill="url(#paint2_linear_5349_21122)"/>
<path id="_x3C_path_x3E__5_" d="M23.6496 16.9147L10.7404 9.30942C9.98026 8.86707 9.31232 8.92107 8.90259 9.36808L19.9176 20.784L23.6496 16.9147Z" fill="url(#paint3_linear_5349_21122)"/>
</g>
</g>
<defs>
<linearGradient id="paint0_linear_5349_21122" x1="18.823" y1="31.068" x2="3.68318" y2="16.292" gradientUnits="userSpaceOnUse">
<stop stop-color="#00A0FF"/>
<stop offset="0.0066" stop-color="#00A1FF"/>
<stop offset="0.2601" stop-color="#00BEFF"/>
<stop offset="0.5122" stop-color="#00D2FF"/>
<stop offset="0.7604" stop-color="#00DFFF"/>
<stop offset="1" stop-color="#00E3FF"/>
</linearGradient>
<linearGradient id="paint1_linear_5349_21122" x1="29.5813" y1="20.7835" x2="8.14859" y2="20.7835" gradientUnits="userSpaceOnUse">
<stop stop-color="#FFE000"/>
<stop offset="0.4087" stop-color="#FFBD00"/>
<stop offset="0.7754" stop-color="#FFA500"/>
<stop offset="1" stop-color="#FF9C00"/>
</linearGradient>
<linearGradient id="paint2_linear_5349_21122" x1="14.2475" y1="26.327" x2="-6.39639" y2="6.17926" gradientUnits="userSpaceOnUse">
<stop stop-color="#FF3A44"/>
<stop offset="1" stop-color="#C31162"/>
</linearGradient>
<linearGradient id="paint3_linear_5349_21122" x1="-1.24005" y1="31.3002" x2="7.97929" y2="22.3025" gradientUnits="userSpaceOnUse">
<stop stop-color="#32A071"/>
<stop offset="0.0685" stop-color="#2DA771"/>
<stop offset="0.4762" stop-color="#15CF74"/>
<stop offset="0.8009" stop-color="#06E775"/>
<stop offset="1" stop-color="#00F076"/>
</linearGradient>
</defs>
</svg>
