<svg width="24" height="25" viewBox="0 0 24 25" fill="none" xmlns="http://www.w3.org/2000/svg">
<g id="Icon">
<path id="search" fill-rule="evenodd" clip-rule="evenodd" d="M11.0165 3.5C7.1414 3.5 4 6.76358 4 10.7894C4 14.8152 7.1414 18.0788 11.0165 18.0788C12.5447 18.0788 13.9588 17.5712 15.1111 16.7096L18.5028 20.2331C18.8453 20.589 19.4006 20.589 19.7431 20.2331C20.0856 19.8773 20.0856 19.3004 19.7431 18.9445L16.397 15.4683C17.4182 14.2022 18.033 12.5704 18.033 10.7894C18.033 6.76358 14.8916 3.5 11.0165 3.5ZM5.75413 10.7894C5.75413 7.77003 8.11018 5.32235 11.0165 5.32235C13.9229 5.32235 16.2789 7.77003 16.2789 10.7894C16.2789 13.8088 13.9229 16.2565 11.0165 16.2565C8.11018 16.2565 5.75413 13.8088 5.75413 10.7894Z" fill="white"/>
</g>
</svg>
