<svg width="19" height="19" viewBox="0 0 19 19" fill="none" xmlns="http://www.w3.org/2000/svg">
  <rect width="19" height="19" rx="4" fill="#001822"/>
  <g transform="translate(0.4,0)">
    <path fill-rule="evenodd" clip-rule="evenodd" d="M6.88817 15.4144C6.88817 14.6729 6.60152 14.0006 6.13753 13.5121L4.32333 11.6494C3.83468 11.1429 3.04546 11.1429 2.55628 11.6494L0.750648 13.5121C0.28665 14.0006 0 14.6723 0 15.4144C0 17.3938 1.53987 18.9991 3.4398 18.9991C5.19238 18.9991 6.63796 17.6322 6.8512 15.8661C6.87478 15.7193 6.88764 15.5685 6.88764 15.4144H6.88817Z" fill="#96F2A9"/>
    <path fill-rule="evenodd" clip-rule="evenodd" d="M11.3066 3.5847C11.3066 4.3262 11.5933 4.99847 12.0573 5.48704L13.8715 7.34974C14.3601 7.85618 15.1494 7.85618 15.6385 7.34974L17.4442 5.48704C17.9082 4.99847 18.1948 4.32676 18.1948 3.5847C18.1948 1.6053 16.6549 0 14.755 0C13.0024 0 11.5569 1.36687 11.3436 3.13298C11.32 3.27983 11.3072 3.43059 11.3072 3.5847H11.3066Z" fill="#96F2A9"/>
    <path fill-rule="evenodd" clip-rule="evenodd" d="M12.0425 9.84842C12.155 9.89867 12.2793 9.92603 12.4095 9.92603C12.9276 9.92603 13.3472 9.48883 13.3472 8.9489C13.3472 8.64068 13.2095 8.36596 12.9957 8.18673L5.08308 0.841454C4.543 0.319384 3.82075 0 3.02617 0C1.35502 0 0 1.4121 0 3.15364C0 4.54061 0.859414 5.71764 2.0537 6.13977L12.0425 9.84786V9.84842Z" fill="#96F2A9"/>
    <path fill-rule="evenodd" clip-rule="evenodd" d="M5.19914 10.8135C4.98482 10.6343 4.84766 10.3596 4.84766 10.0514C4.84766 9.51142 5.26718 9.07422 5.7853 9.07422C5.91549 9.07422 6.0398 9.10214 6.15232 9.15183L16.1411 12.8599C17.3354 13.282 18.1948 14.4591 18.1948 15.8461C18.1948 17.5876 16.8398 18.9997 15.1687 18.9997C14.3741 18.9997 13.6518 18.6803 13.1118 18.1582L5.19914 10.8135Z" fill="#96F2A9"/>
  </g>
</svg>
