<svg preserveAspectRatio="none" overflow="visible" style="display: block;" width="16" height="16" viewBox="0 0 16 16" fill="none" xmlns="http://www.w3.org/2000/svg">
<g id="ic_help_">
<path id="gopay/32/ic_help" fill-rule="evenodd" clip-rule="evenodd" d="M7.99937 1.00033C11.865 1.00033 14.9994 4.13465 14.9994 8.00033C14.9994 11.866 11.865 15.0003 7.99937 15.0003C4.13369 15.0003 0.999369 11.866 0.999369 8.00033C0.999369 4.13465 4.13369 1.00033 7.99937 1.00033ZM7.99908 2.12005C4.75668 2.12005 2.11908 4.75765 2.11908 8.00005C2.11908 11.2425 4.75668 13.8801 7.99908 13.8801C11.2415 13.8801 13.8791 11.2425 13.8791 8.00005C13.8791 4.75765 11.2415 2.12005 7.99908 2.12005ZM7.9999 10.2405C8.46022 10.2405 8.8399 10.619 8.8399 11.0805C8.8399 11.5419 8.46078 11.9205 7.9999 11.9205C7.53902 11.9205 7.1599 11.5425 7.1599 11.0805C7.1599 10.619 7.53902 10.2405 7.9999 10.2405ZM7.90808 4.64046C9.08352 4.64046 10.2399 5.22174 10.2399 6.61222C10.2399 7.89518 9.074 8.38798 8.78056 8.85166C8.55992 9.19606 8.63328 9.68046 8.02736 9.68046C7.63312 9.68046 7.43992 9.3355 7.43992 9.01966C7.43992 7.8459 8.8444 7.5799 8.8444 6.61222C8.8444 6.08022 8.51456 5.76494 7.96352 5.76494C6.78808 5.76494 7.24672 7.06638 6.35688 7.06638C6.03544 7.06638 5.75992 6.85918 5.75992 6.46494C5.75992 5.49726 6.78752 4.64046 7.90808 4.64046Z" fill="#FCFCFD"/>
</g>
</svg>
