<svg preserveAspectRatio="none" overflow="visible" style="display: block;" width="40" height="40" viewBox="0 0 40 40" fill="none" xmlns="http://www.w3.org/2000/svg">
<g id="default/gopay/minispot/bank">
<path id="Vector" d="M29.65 21.07H25.3V29.87H29.65V21.07Z" fill="#00AAD4"/>
<path id="Vector_2" d="M22.18 21.07H17.83V29.87H22.18V21.07Z" fill="#00AAD4"/>
<path id="Vector_3" d="M14.72 21.07H10.37V29.87H14.72V21.07Z" fill="#00AAD4"/>
<path id="Vector_4" d="M33.74 17.11L32.87 21.47C32.78 21.92 32.39 22.24 31.93 22.24H8.06C7.6 22.24 7.21 21.92 7.12 21.47L6.25 17.11L19.52 6.42C19.8 6.2 20.2 6.2 20.48 6.42L33.75 17.11H33.74Z" fill="#00AAD4"/>
<path id="Vector_5" d="M8.54 29.43L9.31 33.31C9.36 33.56 9.58 33.75 9.84 33.75H29.95C30.21 33.75 30.43 33.57 30.48 33.31L31.25 29.43C31.31 29.15 31.09 28.88 30.8 28.88H8.99C8.7 28.88 8.48 29.14 8.54 29.43Z" fill="#00E9DB"/>
<path id="Vector_6" d="M33.75 17.11L32.81 21.79C32.76 22.05 32.53 22.24 32.26 22.24H7.73C7.46 22.24 7.23 22.05 7.18 21.79L6.25 17.11H33.75Z" fill="#00E9DB"/>
<path id="Vector_7" d="M18.99 15C21.02 15.88 22.97 13.93 22.09 11.9C21.88 11.43 21.49 11.04 21.02 10.83C18.99 9.95 17.04 11.9 17.92 13.93C18.13 14.4 18.52 14.79 18.99 15Z" fill="white"/>
</g>
</svg>
