<svg width="143" height="19" viewBox="0 0 143 19" fill="none" xmlns="http://www.w3.org/2000/svg">
<g clip-path="url(#clip0_836_1340)">
<path d="M82.0334 6.64105C80.0637 1.43137 73.6735 3.76674 73.0833 6.37159C72.2685 3.59993 66.0387 1.53402 64.1331 6.64747C62.0159 12.3448 72.3455 17.4518 73.0833 18.2923C73.8211 17.625 84.1507 12.2485 82.0334 6.64747V6.64105Z" fill="#EC184A"/>
<path d="M129.286 18.6198H126.175L130.506 2.98438H133.617L129.286 18.6198Z" fill="#6D6E70"/>
<path d="M127.669 3.47255C127.451 3.17742 127.118 3.02344 126.669 3.02344H109.551L108.704 6.08381H111.816H124.275L123.371 9.3559H110.911L107.799 9.34948L105.214 18.6782H108.326L110.058 12.4163H124.064C124.5 12.4163 124.911 12.2687 125.302 11.9672C125.687 11.6656 125.944 11.2999 126.065 10.8636L127.798 4.60174C127.926 4.14621 127.881 3.76768 127.669 3.47255Z" fill="#6D6E70"/>
<path d="M103.404 17.6388C103.231 18.2611 102.666 18.6846 102.025 18.6846H85.9658C85.5295 18.6846 85.2023 18.537 84.9906 18.2355C84.7789 17.9403 84.734 17.5682 84.8559 17.1319L88.776 3.02344H91.8941L88.391 15.6242H100.857L104.36 3.02344H107.478L103.417 17.6388H103.404Z" fill="#6D6E70"/>
<path d="M138.993 3.01172L142.932 10.8455L134.649 18.6857L138.993 3.01172Z" fill="#008B44"/>
<path d="M136.228 3.01172L140.167 10.8455L131.878 18.6857L136.228 3.01172Z" fill="#F37920"/>
<path d="M58.962 5.77056C58.4231 4.21792 56.9603 3.10156 55.2408 3.10156H55.2023C54.0859 3.10156 53.0787 3.56992 52.3601 4.32699C51.6415 3.56992 50.6342 3.10156 49.5179 3.10156H49.4794C48.4977 3.10156 47.5995 3.46727 46.9066 4.06394V3.7624C46.8809 3.45444 46.6371 3.21705 46.3292 3.21705H43.6922C43.3714 3.21705 43.1084 3.4801 43.1084 3.80731V18.2943C43.1084 18.6215 43.3714 18.8846 43.6922 18.8846H46.3292C46.6243 18.8846 46.8681 18.66 46.9066 18.3713V7.97762C46.9066 7.93913 46.9066 7.90705 46.9066 7.87497C46.9515 7.41303 47.2851 7.02807 47.8176 6.98316H48.3053C48.5298 7.00241 48.7159 7.0794 48.8634 7.2013C49.0944 7.38736 49.2227 7.66966 49.2227 7.98404L49.2356 18.3328C49.2356 18.66 49.4986 18.9231 49.8194 18.9231H52.4563C52.7707 18.9231 53.0209 18.6729 53.0337 18.3585V7.96479C53.0337 7.62475 53.1877 7.31037 53.4636 7.13073C53.5983 7.04091 53.7587 6.98316 53.9448 6.96392H54.4324C55.0034 7.01524 55.3499 7.45152 55.3435 7.96479L55.3563 18.3008C55.3563 18.628 55.6193 18.891 55.9401 18.891H58.5771C58.8979 18.891 59.1609 18.628 59.1609 18.3008V7.18205C59.1609 6.42498 59.0775 6.10419 58.962 5.77056Z" fill="#00BCF1"/>
<path d="M41.1125 3.25765H39.6047V0.787536C39.6047 0.479575 39.3674 0.242188 39.0722 0.242188C39.0402 0.242188 39.0017 0.242188 38.9696 0.255019C37.295 0.716962 37.6351 3.05875 34.5811 3.26406H34.286C34.2411 3.26406 34.2026 3.26406 34.1577 3.27689C33.8946 3.33464 33.7021 3.57202 33.7021 3.85432V6.52332C33.7021 6.85053 33.9652 7.11358 34.286 7.11358H35.8771V18.4248C35.8771 18.7456 36.1338 19.0086 36.4546 19.0086H39.0594C39.3802 19.0086 39.6368 18.7456 39.6368 18.4248V7.10717H41.1125C41.4333 7.10717 41.6963 6.84412 41.6963 6.51691V3.84791C41.6963 3.5207 41.4333 3.25765 41.1125 3.25765Z" fill="#00BCF1"/>
<path d="M31.6236 3.25781H28.9867C28.6659 3.25781 28.4028 3.52086 28.4028 3.84807V9.36572C28.4028 9.70576 28.1269 9.98164 27.7869 9.98164H26.6834C26.3433 9.98164 26.0674 9.70576 26.0674 9.3593L26.0546 3.84807C26.0546 3.52086 25.7916 3.25781 25.4708 3.25781H22.8338C22.5131 3.25781 22.25 3.52086 22.25 3.84807V9.89182C22.25 12.1887 23.8668 13.8247 26.138 13.8247C26.138 13.8247 27.8446 13.8247 27.896 13.8376C28.2039 13.8761 28.4413 14.1327 28.4413 14.4535C28.4413 14.7743 28.2039 15.0309 27.9024 15.0694C27.8895 15.0694 27.8767 15.0694 27.8575 15.0758L24.0015 15.0887C23.6807 15.0887 23.4177 15.3517 23.4177 15.6789V18.3415C23.4177 18.6687 23.6807 18.9318 24.0015 18.9318H28.313C30.4623 18.9318 32.201 17.1674 32.201 14.9989V3.84807C32.201 3.52086 31.938 3.25781 31.6172 3.25781H31.6236Z" fill="#172B75"/>
<path d="M6.33246 3.25781H0.571012C0.256635 3.25781 0 3.51445 0 3.83524V6.4465V6.45933C0 6.47858 0 6.49141 0 6.50424V18.3287C0 18.6495 0.237387 18.9125 0.532517 18.9189H3.21435C3.53514 18.9189 3.79819 18.6559 3.79819 18.3287L3.81103 14.2739H6.33246C8.44328 14.2739 9.91252 12.7918 9.91252 10.6489V6.88919C9.91252 4.74629 8.44328 3.25781 6.33246 3.25781ZM6.10149 8.1467V9.78917C6.10149 10.1356 5.82561 10.4115 5.48557 10.4115H3.81103V7.11375H5.48557C5.82561 7.11375 6.10149 7.39605 6.10149 7.73609V8.14029V8.1467Z" fill="#172B75"/>
<path d="M16.6239 3.27344H12.9668C12.6461 3.27344 12.383 3.52366 12.383 3.8252V4.88382V4.89665V6.32739C12.383 6.6546 12.6589 6.91123 13.0053 6.91123H16.4892C16.765 6.95615 16.9832 7.15504 17.0153 7.47583V7.82229C16.9832 8.12383 16.7715 8.34197 16.5084 8.36764H14.7825C12.4857 8.36764 10.8496 9.90745 10.8496 12.076V15.1813C10.8496 17.337 12.2547 18.864 14.5323 18.864H19.3121C20.1719 18.864 20.8648 18.2096 20.8648 17.3948V7.27694C20.8648 4.81966 19.6137 3.27344 16.6239 3.27344ZM17.0409 14.405V14.822C17.0409 14.8541 17.0409 14.8862 17.0281 14.9182C17.0281 14.9503 17.0153 14.976 17.0024 15.0016C16.919 15.2326 16.6881 15.4058 16.4186 15.4058H15.3215C14.975 15.4058 14.6991 15.1428 14.6991 14.822V14.3023V12.9614V12.5444C14.6991 12.2172 14.975 11.9605 15.3215 11.9605H16.4186C16.7586 11.9605 17.0409 12.2236 17.0409 12.5444V14.405Z" fill="#172B75"/>
<path d="M58.962 5.77056C58.4231 4.21792 56.9603 3.10156 55.2408 3.10156H55.2023C54.0859 3.10156 53.0787 3.56992 52.3601 4.32699C51.6415 3.56992 50.6342 3.10156 49.5179 3.10156H49.4794C48.4977 3.10156 47.5995 3.46727 46.9066 4.06394V3.7624C46.8809 3.45444 46.6371 3.21705 46.3292 3.21705H43.6922C43.3714 3.21705 43.1084 3.4801 43.1084 3.80731V18.2943C43.1084 18.6215 43.3714 18.8846 43.6922 18.8846H46.3292C46.6243 18.8846 46.8681 18.66 46.9066 18.3713V7.97762C46.9066 7.93913 46.9066 7.90705 46.9066 7.87497C46.9515 7.41303 47.2851 7.02807 47.8176 6.98316H48.3053C48.5298 7.00241 48.7159 7.0794 48.8634 7.2013C49.0944 7.38736 49.2227 7.66966 49.2227 7.98404L49.2356 18.3328C49.2356 18.66 49.4986 18.9231 49.8194 18.9231H52.4563C52.7707 18.9231 53.0209 18.6729 53.0337 18.3585V7.96479C53.0337 7.62475 53.1877 7.31037 53.4636 7.13073C53.5983 7.04091 53.7587 6.98316 53.9448 6.96392H54.4324C55.0034 7.01524 55.3499 7.45152 55.3435 7.96479L55.3563 18.3008C55.3563 18.628 55.6193 18.891 55.9401 18.891H58.5771C58.8979 18.891 59.1609 18.628 59.1609 18.3008V7.18205C59.1609 6.42498 59.0775 6.10419 58.962 5.77056Z" fill="#00BCF1"/>
<path d="M41.1135 3.25765H39.6057V0.787536C39.6057 0.479575 39.3683 0.242188 39.0732 0.242188C39.0411 0.242188 39.0026 0.242188 38.9706 0.255019C37.296 0.716962 37.6361 3.05875 34.5821 3.26406H34.287C34.2421 3.26406 34.2036 3.26406 34.1587 3.27689C33.8956 3.33464 33.7031 3.57202 33.7031 3.85432V6.52332C33.7031 6.85053 33.9662 7.11358 34.287 7.11358H35.8781V18.4248C35.8781 18.7456 36.1347 19.0086 36.4555 19.0086H39.0604C39.3812 19.0086 39.6378 18.7456 39.6378 18.4248V7.10717H41.1135C41.4342 7.10717 41.6973 6.84412 41.6973 6.51691V3.84791C41.6973 3.5207 41.4342 3.25765 41.1135 3.25765Z" fill="#00BCF1"/>
<path d="M31.6236 3.25781H28.9867C28.6659 3.25781 28.4028 3.52086 28.4028 3.84807V9.36572C28.4028 9.70576 28.1269 9.98164 27.7869 9.98164H26.6834C26.3433 9.98164 26.0674 9.70576 26.0674 9.3593L26.0546 3.84807C26.0546 3.52086 25.7916 3.25781 25.4708 3.25781H22.8338C22.5131 3.25781 22.25 3.52086 22.25 3.84807V9.89182C22.25 12.1887 23.8668 13.8247 26.138 13.8247C26.138 13.8247 27.8446 13.8247 27.896 13.8376C28.2039 13.8761 28.4413 14.1327 28.4413 14.4535C28.4413 14.7743 28.2039 15.0309 27.9024 15.0694C27.8895 15.0694 27.8767 15.0694 27.8575 15.0758L24.0015 15.0887C23.6807 15.0887 23.4177 15.3517 23.4177 15.6789V18.3415C23.4177 18.6687 23.6807 18.9318 24.0015 18.9318H28.313C30.4623 18.9318 32.201 17.1674 32.201 14.9989V3.84807C32.201 3.52086 31.938 3.25781 31.6172 3.25781H31.6236Z" fill="#172B75"/>
<path d="M6.33246 3.25781H0.571012C0.256635 3.25781 0 3.51445 0 3.83524V6.4465V6.45933C0 6.47858 0 6.49141 0 6.50424V18.3287C0 18.6495 0.237387 18.9125 0.532517 18.9189H3.21435C3.53514 18.9189 3.79819 18.6559 3.79819 18.3287L3.81103 14.2739H6.33246C8.44328 14.2739 9.91252 12.7918 9.91252 10.6489V6.88919C9.91252 4.74629 8.44328 3.25781 6.33246 3.25781ZM6.10149 8.1467V9.78917C6.10149 10.1356 5.82561 10.4115 5.48557 10.4115H3.81103V7.11375H5.48557C5.82561 7.11375 6.10149 7.39605 6.10149 7.73609V8.14029V8.1467Z" fill="#172B75"/>
<path d="M16.6239 3.27344H12.9668C12.6461 3.27344 12.383 3.52366 12.383 3.8252V4.88382V4.89665V6.32739C12.383 6.6546 12.6589 6.91123 13.0053 6.91123H16.4892C16.765 6.95615 16.9832 7.15504 17.0153 7.47583V7.82229C16.9832 8.12383 16.7715 8.34197 16.5084 8.36764H14.7825C12.4857 8.36764 10.8496 9.90745 10.8496 12.076V15.1813C10.8496 17.337 12.2547 18.864 14.5323 18.864H19.3121C20.1719 18.864 20.8648 18.2096 20.8648 17.3948V7.27694C20.8648 4.81966 19.6137 3.27344 16.6239 3.27344ZM17.0409 14.405V14.822C17.0409 14.8541 17.0409 14.8862 17.0281 14.9182C17.0281 14.9503 17.0153 14.976 17.0024 15.0016C16.919 15.2326 16.6881 15.4058 16.4186 15.4058H15.3215C14.975 15.4058 14.6991 15.1428 14.6991 14.822V14.3023V12.9614V12.5444C14.6991 12.2172 14.975 11.9605 15.3215 11.9605H16.4186C16.7586 11.9605 17.0409 12.2236 17.0409 12.5444V14.405Z" fill="#172B75"/>
</g>
<defs>
<clipPath id="clip0_836_1340">
<rect width="142.933" height="18.76" fill="white" transform="translate(0 0.242188)"/>
</clipPath>
</defs>
</svg>
