<svg width="32" height="32" viewBox="0 0 32 32" fill="#1D1D1D" xmlns="http://www.w3.org/2000/svg">
<path fill-rule="evenodd" clip-rule="evenodd" d="M11 7C11 4.23858 13.2386 2 16 2C18.7614 2 21 4.23858 21 7V11H28L26.3018 25.5842C26.0086 28.1023 23.8965 30 21.3871 30H10.6129C8.10352 30 5.99136 28.1023 5.69816 25.5842L4 11H11V7ZM19 7V11H13V7C13 5.34315 14.3431 4 16 4C17.6569 4 19 5.34315 19 7ZM6.80818 18L7.66406 25.3505C7.83998 26.8614 9.10728 28 10.6129 28H21.3871C22.8927 28 24.16 26.8614 24.3359 25.3505L25.1918 18H6.80818ZM6.5753 16H25.4247L25.774 13H6.22598L6.5753 16Z" fill="#1D1D1D"/>
</svg>
