<svg width="32" height="32" viewBox="0 0 32 32" fill="#1D1D1D" xmlns="http://www.w3.org/2000/svg">
<path fill-rule="evenodd" clip-rule="evenodd" d="M16 3C12.134 3 9 6.13401 9 10C9 13.866 12.134 17 16 17C19.866 17 23 13.866 23 10C23 6.13401 19.866 3 16 3ZM11 10C11 7.23858 13.2386 5 16 5C18.7614 5 21 7.23858 21 10C21 12.7614 18.7614 15 16 15C13.2386 15 11 12.7614 11 10Z" fill="#1D1D1D"/>
<path fill-rule="evenodd" clip-rule="evenodd" d="M12 20C8.13401 20 5 23.134 5 27V29H27V27C27 23.134 23.866 20 20 20H12ZM7 27C7 24.2386 9.23858 22 12 22H20C22.7614 22 25 24.2386 25 27H7Z" fill="#1D1D1D"/>
</svg>
