<svg width="32" height="32" viewBox="0 0 32 32" fill="#1D1D1D" xmlns="http://www.w3.org/2000/svg">
<path fill-rule="evenodd" clip-rule="evenodd" d="M20.5232 23.0056C23.0127 19.7121 25 15.8524 25 12.7692C25 7.99049 20.9856 4 16 4C11.0144 4 7 7.99049 7 12.7692C7 15.8524 8.98734 19.7121 11.4768 23.0056C12.6847 24.6036 13.93 25.9615 14.9439 26.9002C15.3623 27.2876 15.7193 27.5831 16 27.7891C16.2807 27.5831 16.6377 27.2876 17.0561 26.9002C18.07 25.9615 19.3153 24.6036 20.5232 23.0056ZM15.5631 28.0707C15.5434 28.0798 15.546 28.0768 15.5682 28.0684C15.5663 28.0693 15.5631 28.0707 15.5631 28.0707ZM16.4318 28.0684C16.454 28.0768 16.4566 28.0798 16.4369 28.0707C16.4369 28.0707 16.4337 28.0693 16.4318 28.0684ZM16 30C17.65 30 27 20.3077 27 12.7692C27 6.84615 22.05 2 16 2C9.95 2 5 6.84615 5 12.7692C5 20.3077 14.35 30 16 30Z" fill="#1D1D1D"/>
<path fill-rule="evenodd" clip-rule="evenodd" d="M16 15C17.1046 15 18 14.1046 18 13C18 11.8954 17.1046 11 16 11C14.8954 11 14 11.8954 14 13C14 14.1046 14.8954 15 16 15ZM16 17C18.2091 17 20 15.2091 20 13C20 10.7909 18.2091 9 16 9C13.7909 9 12 10.7909 12 13C12 15.2091 13.7909 17 16 17Z" fill="#1D1D1D"/>
</svg>
